<svg width="28" height="28" viewBox="0 0 28 28" fill="none" xmlns="http://www.w3.org/2000/svg">
<path d="M16.3333 24.5H11.6666M21 9.33333C21 7.47682 20.2625 5.69634 18.9497 4.38358C17.637 3.07083 15.8565 2.33333 14 2.33333C12.1435 2.33333 10.363 3.07083 9.05023 4.38358C7.73748 5.69634 6.99998 7.47682 6.99998 9.33333C6.99998 12.9385 6.09053 15.407 5.07459 17.0396C4.21763 18.4169 3.78915 19.1055 3.80486 19.2976C3.82226 19.5103 3.86732 19.5914 4.03872 19.7185C4.19352 19.8333 4.89134 19.8333 6.28698 19.8333H21.713C23.1086 19.8333 23.8064 19.8333 23.9612 19.7185C24.1326 19.5914 24.1777 19.5103 24.1951 19.2976C24.2108 19.1055 23.7823 18.4169 22.9254 17.0397C21.9094 15.407 21 12.9386 21 9.33333Z" stroke="#717680" stroke-width="2" stroke-linecap="round" stroke-linejoin="round"/>
</svg>
