<svg width="20" height="20" viewBox="0 0 20 20" fill="none" xmlns="http://www.w3.org/2000/svg">
<g clip-path="url(#clip0_183_3480)">
<path d="M8.74984 1.66902C8.1873 1.67664 7.84959 1.70921 7.57652 1.84834C7.26292 2.00813 7.00795 2.2631 6.84816 2.5767C6.70903 2.84977 6.67646 3.18748 6.66883 3.75002M16.2498 1.66902C16.8124 1.67664 17.1501 1.70921 17.4232 1.84834C17.7368 2.00813 17.9917 2.2631 18.1515 2.5767C18.2906 2.84977 18.3232 3.18747 18.3308 3.75001M18.3308 11.25C18.3232 11.8126 18.2907 12.1503 18.1515 12.4233C17.9917 12.7369 17.7368 12.9919 17.4232 13.1517C17.1501 13.2908 16.8124 13.3234 16.2498 13.331M18.3332 6.66668V8.33335M11.6665 1.66669H13.3331M4.33317 18.3334H10.6665C11.5999 18.3334 12.0666 18.3334 12.4232 18.1517C12.7368 17.9919 12.9917 17.7369 13.1515 17.4233C13.3332 17.0668 13.3332 16.6001 13.3332 15.6667V9.33335C13.3332 8.39993 13.3332 7.93322 13.1515 7.5767C12.9917 7.2631 12.7368 7.00813 12.4232 6.84834C12.0666 6.66669 11.5999 6.66669 10.6665 6.66669H4.33317C3.39975 6.66669 2.93304 6.66669 2.57652 6.84834C2.26292 7.00813 2.00795 7.2631 1.84816 7.5767C1.6665 7.93322 1.6665 8.39993 1.6665 9.33335V15.6667C1.6665 16.6001 1.6665 17.0668 1.84816 17.4233C2.00795 17.7369 2.26292 17.9919 2.57652 18.1517C2.93304 18.3334 3.39975 18.3334 4.33317 18.3334Z" stroke="#414651" stroke-width="1.66667" stroke-linecap="round" stroke-linejoin="round"/>
</g>
<defs>
<clipPath id="clip0_183_3480">
<rect width="20" height="20" fill="white"/>
</clipPath>
</defs>
</svg>
