<svg width="17" height="17" viewBox="0 0 17 17" fill="none" xmlns="http://www.w3.org/2000/svg">
<g clip-path="url(#clip0_204_1519)">
<path d="M7.66196 3.83934C7.9329 3.79928 8.2124 3.77779 8.50028 3.77779C11.9036 3.77779 14.1369 6.78102 14.8871 7.96901C14.9779 8.11279 15.0233 8.18469 15.0488 8.29557C15.0678 8.37885 15.0678 8.51023 15.0487 8.59351C15.0233 8.70439 14.9776 8.77676 14.8861 8.9215C14.6862 9.23789 14.3814 9.68253 13.9777 10.1648M4.98288 4.92115C3.5415 5.89893 2.56297 7.25738 2.11407 7.96798C2.02286 8.11237 1.97725 8.18457 1.95183 8.29545C1.93273 8.37872 1.93272 8.51009 1.95181 8.59336C1.97722 8.70424 2.02262 8.77613 2.11342 8.91991C2.86369 10.1079 5.09694 13.1111 8.50028 13.1111C9.87255 13.1111 11.0546 12.6229 12.0259 11.9622M2.50028 2.44446L14.5003 14.4445M7.08606 7.03024C6.72413 7.39217 6.50028 7.89217 6.50028 8.44446C6.50028 9.54903 7.39571 10.4445 8.50028 10.4445C9.05256 10.4445 9.55256 10.2206 9.91449 9.85867" stroke="#717680" stroke-width="2" stroke-linecap="round" stroke-linejoin="round"/>
</g>
<defs>
<clipPath id="clip0_204_1519">
<rect width="16" height="16" fill="white" transform="translate(0.5 0.444458)"/>
</clipPath>
</defs>
</svg>
