<svg width="48" height="48" viewBox="0 0 48 48" fill="none" xmlns="http://www.w3.org/2000/svg">
<path d="M0 24C0 10.7452 10.7452 0 24 0C37.2548 0 48 10.7452 48 24C48 37.2548 37.2548 48 24 48C10.7452 48 0 37.2548 0 24Z" fill="#E4EEE8"/>
<path fill-rule="evenodd" clip-rule="evenodd" d="M19.1468 27.7934L19.1453 27.8339C19.128 28.0679 19.0601 28.3525 18.9431 28.669C18.3463 30.2713 18.3839 31.5283 18.9185 34.0552C19.2393 35.5723 18.1311 37.8494 15.2919 39.2305C15.0608 39.3432 14.9307 39.5961 14.9755 39.8504C15.0203 40.1047 15.2269 40.2983 15.4827 40.3258C25.7554 41.4311 32.2486 38.1108 35.5716 34.9336C37.0555 33.5163 37.9166 32.1119 38.2316 31.1076C38.5668 30.037 40.1157 28.4187 41.3365 27.2571C41.3467 27.247 41.3568 27.2369 41.3669 27.2268C41.809 26.737 42.0358 26.0911 41.9954 25.4323C41.9549 24.7763 41.653 24.1623 41.1559 23.7317C40.2804 22.9616 39.3528 21.8548 38.9843 20.6368C38.2677 18.2687 35.9921 15.983 30.1608 11.348C25.4652 7.61294 18.7755 6.74742 16.8366 7.05812C16.3049 7.14337 16.0145 7.37599 15.9148 7.54936C15.766 7.80943 15.7371 8.13595 16.0853 8.46685C16.6748 9.02888 18.0604 10.5734 18.8305 12.1975C19.2842 13.1539 19.5529 14.1336 19.157 14.9152C17.9188 17.3556 18.6947 19.0057 18.9403 19.686C19.1079 20.1526 19.2293 20.4994 19.2885 20.7667C19.3015 20.8274 19.3116 20.8837 19.3174 20.9343C19.3218 20.9805 19.3377 21.0152 19.3073 21.0398C19.2943 21.0513 19.2755 21.034 19.2553 21.0311C19.2062 21.0253 19.1542 21.0109 19.0993 20.9936C18.8247 20.9025 18.5054 20.7147 18.1413 20.4821C16.8684 19.6672 15.1548 18.3408 13.2622 17.8091C12.8129 17.682 12.3867 17.5866 12.0616 17.6039C11.6758 17.6256 11.3839 17.7788 11.1961 18.0547C11.0516 18.27 10.9534 18.6009 11.0227 19.1022C11.0921 19.5978 11.3319 20.3391 11.8319 21.4212C12.4112 22.6797 12.3924 24.4525 12.1873 26.1257C11.8665 28.7409 11.0589 31.1236 11.0589 31.1236C10.9996 31.2955 11.0256 31.4848 11.1282 31.6336C11.2293 31.7838 11.3955 31.8778 11.5775 31.8864C15.9699 32.1046 17.7035 29.2944 18.9666 27.9535C19.023 27.8957 19.0866 27.8393 19.1473 27.7931L19.1468 27.7934ZM12.1609 18.7616C12.2056 18.7631 12.2649 18.7645 12.3111 18.7718C12.5047 18.7992 12.7229 18.8584 12.9498 18.922C15.0462 19.5115 16.8942 21.1587 18.1381 21.8262C18.9515 22.2625 19.6089 22.2828 20.0352 21.9374C20.3819 21.6571 20.5322 21.3234 20.4614 20.7671C20.4195 20.4333 20.2706 19.971 20.0279 19.2962C19.83 18.7443 19.187 17.4107 20.1868 15.4384C20.7286 14.3692 20.4946 13.0125 19.8748 11.7033C19.2174 10.3148 18.1496 8.97977 17.4069 8.17066C17.5413 8.1591 17.6858 8.15188 17.8303 8.15188C20.3082 8.16488 25.5878 9.18784 29.4412 12.2524C32.2543 14.489 34.2208 16.1461 35.5686 17.5332C36.8444 18.8451 37.5495 19.8897 37.8775 20.9719C38.3081 22.3937 39.3701 23.6998 40.393 24.5999L40.3959 24.6028C40.6588 24.8311 40.8207 25.1547 40.8409 25.5029C40.8626 25.8425 40.7484 26.1762 40.5259 26.4334C39.162 27.7323 37.5018 29.5716 37.1291 30.7607C36.8531 31.642 36.0729 32.8557 34.7725 34.0982C31.799 36.9417 26.144 39.8517 17.3593 39.3228C19.6205 37.6294 20.3761 35.358 20.0496 33.8149C19.5786 31.5898 19.5005 30.4831 20.0265 29.0716C20.3183 28.287 20.353 27.6267 20.2403 27.2322C20.1522 26.9216 19.9773 26.7179 19.7722 26.6023C19.5699 26.4896 19.3214 26.4463 19.0252 26.5344C18.7825 26.6081 18.4704 26.7945 18.1251 27.16C17.0819 28.2668 15.7208 30.5843 12.3875 30.7346C12.6634 29.7896 13.1113 28.0818 13.3338 26.2657C13.565 24.37 13.539 22.3645 12.8801 20.9372C12.4496 20.0053 12.2271 19.371 12.1678 18.9447C12.1592 18.8841 12.1592 18.8133 12.1606 18.7612L12.1609 18.7616ZM33.8943 26.4382C33.8943 26.4382 32.9436 26.1752 31.899 26.0798C31.1419 26.0105 30.3415 26.0408 29.7722 26.272C29.2983 26.4642 28.8417 26.9279 28.5773 27.5478C28.2045 28.4118 28.1958 29.5677 28.9746 30.5444C29.6334 31.3709 30.4093 31.7147 31.1577 31.6931C31.8989 31.6728 32.6416 31.2871 33.2484 30.5517C33.7021 30.0026 34.4 29.0172 34.4 29.0172C34.5849 28.7572 34.5228 28.396 34.2627 28.2125C34.0026 28.0275 33.6414 28.0882 33.4565 28.3497C33.4565 28.3497 32.7904 29.2918 32.3569 29.8162C31.9928 30.2569 31.5695 30.5257 31.1259 30.5386C30.6896 30.5502 30.2619 30.3046 29.8776 29.8234C29.4051 29.231 29.4124 28.5289 29.6392 28.0029C29.7707 27.6952 29.9701 27.438 30.207 27.3426C30.6318 27.1707 31.23 27.1793 31.7935 27.2314C32.7326 27.3166 33.588 27.5521 33.588 27.5521C33.8943 27.6374 34.2136 27.4553 34.2989 27.149C34.3827 26.8413 34.2021 26.522 33.8943 26.4382ZM36.758 22.6802C37.0759 22.6802 37.3359 22.9388 37.3359 23.2581C37.3359 23.5774 37.0759 23.836 36.758 23.836C36.4387 23.836 36.1801 23.5774 36.1801 23.2581C36.1801 22.9388 36.4387 22.6802 36.758 22.6802Z" fill="#014437" stroke="#014437" stroke-width="0.3"/>
</svg>
