<svg width="28" height="28" viewBox="0 0 28 28" fill="none" xmlns="http://www.w3.org/2000/svg">
<g filter="url(#filter0_dii_198_6103)">
<path d="M2 7C2 3.68629 4.68629 1 8 1H20C23.3137 1 26 3.68629 26 7V19C26 22.3137 23.3137 25 20 25H8C4.68629 25 2 22.3137 2 19V7Z" fill="#F7F7F3"/>
<path d="M8 1.5H20C23.0376 1.5 25.5 3.96243 25.5 7V19C25.5 22.0376 23.0376 24.5 20 24.5H8C4.96243 24.5 2.5 22.0376 2.5 19V7C2.5 3.96243 4.96243 1.5 8 1.5Z" stroke="#535862"/>
<path d="M11 13L13 15L17 11M11.2 19H16.8C17.9201 19 18.4802 19 18.908 18.782C19.2843 18.5903 19.5903 18.2843 19.782 17.908C20 17.4802 20 16.9201 20 15.8V10.2C20 9.0799 20 8.51984 19.782 8.09202C19.5903 7.71569 19.2843 7.40973 18.908 7.21799C18.4802 7 17.9201 7 16.8 7H11.2C10.0799 7 9.51984 7 9.09202 7.21799C8.71569 7.40973 8.40973 7.71569 8.21799 8.09202C8 8.51984 8 9.0799 8 10.2V15.8C8 16.9201 8 17.4802 8.21799 17.908C8.40973 18.2843 8.71569 18.5903 9.09202 18.782C9.51984 19 10.0799 19 11.2 19Z" stroke="#535862" stroke-width="1.33333" stroke-linecap="round" stroke-linejoin="round"/>
</g>
<defs>
<filter id="filter0_dii_198_6103" x="0" y="0" width="28" height="28" filterUnits="userSpaceOnUse" color-interpolation-filters="sRGB">
<feFlood flood-opacity="0" result="BackgroundImageFix"/>
<feColorMatrix in="SourceAlpha" type="matrix" values="0 0 0 0 0 0 0 0 0 0 0 0 0 0 0 0 0 0 127 0" result="hardAlpha"/>
<feOffset dy="1"/>
<feGaussianBlur stdDeviation="1"/>
<feComposite in2="hardAlpha" operator="out"/>
<feColorMatrix type="matrix" values="0 0 0 0 0.0392157 0 0 0 0 0.0496732 0 0 0 0 0.0705882 0 0 0 0.05 0"/>
<feBlend mode="normal" in2="BackgroundImageFix" result="effect1_dropShadow_198_6103"/>
<feBlend mode="normal" in="SourceGraphic" in2="effect1_dropShadow_198_6103" result="shape"/>
<feColorMatrix in="SourceAlpha" type="matrix" values="0 0 0 0 0 0 0 0 0 0 0 0 0 0 0 0 0 0 127 0" result="hardAlpha"/>
<feOffset dy="-2"/>
<feComposite in2="hardAlpha" operator="arithmetic" k2="-1" k3="1"/>
<feColorMatrix type="matrix" values="0 0 0 0 0.0392157 0 0 0 0 0.0496732 0 0 0 0 0.0705882 0 0 0 0.05 0"/>
<feBlend mode="normal" in2="shape" result="effect2_innerShadow_198_6103"/>
<feColorMatrix in="SourceAlpha" type="matrix" values="0 0 0 0 0 0 0 0 0 0 0 0 0 0 0 0 0 0 127 0" result="hardAlpha"/>
<feMorphology radius="1" operator="erode" in="SourceAlpha" result="effect3_innerShadow_198_6103"/>
<feOffset/>
<feComposite in2="hardAlpha" operator="arithmetic" k2="-1" k3="1"/>
<feColorMatrix type="matrix" values="0 0 0 0 0.0392157 0 0 0 0 0.0496732 0 0 0 0 0.0705882 0 0 0 0.18 0"/>
<feBlend mode="normal" in2="effect2_innerShadow_198_6103" result="effect3_innerShadow_198_6103"/>
</filter>
</defs>
</svg>
