<svg width="48" height="48" viewBox="0 0 48 48" fill="none" xmlns="http://www.w3.org/2000/svg">
<path d="M0 24C0 10.7452 10.7452 0 24 0C37.2548 0 48 10.7452 48 24C48 37.2548 37.2548 48 24 48C10.7452 48 0 37.2548 0 24Z" fill="#E4EEE8"/>
<path d="M15 20L27 20M27 20C27 21.6569 28.3431 23 30 23C31.6569 23 33 21.6569 33 20C33 18.3431 31.6569 17 30 17C28.3431 17 27 18.3431 27 20ZM21 28L33 28M21 28C21 29.6569 19.6569 31 18 31C16.3431 31 15 29.6569 15 28C15 26.3431 16.3431 25 18 25C19.6569 25 21 26.3431 21 28Z" stroke="#014437" stroke-width="1.5" stroke-linecap="round" stroke-linejoin="round"/>
</svg>
