<svg width="48" height="48" viewBox="0 0 48 48" fill="none" xmlns="http://www.w3.org/2000/svg">
<path d="M0 24C0 10.7452 10.7452 0 24 0C37.2548 0 48 10.7452 48 24C48 37.2548 37.2548 48 24 48C10.7452 48 0 37.2548 0 24Z" fill="#E4EEE8"/>
<path d="M20.6756 22.3413C23.2551 22.3413 25.3455 24.4317 25.3455 27.0112C25.3455 29.2578 25.5314 31.4597 25.5314 33.645C25.5314 36.2226 23.4411 38.3148 20.8616 38.3148C19.5709 38.3148 18.4048 37.7922 17.5586 36.946C16.7626 36.1501 16.2512 35.0658 16.1954 33.8625C16.0001 33.6636 15.8049 33.446 15.6059 33.2246C14.9438 32.49 14.2166 31.681 13.6699 31.681C11.0904 31.681 9 29.5907 9 27.0112C9 24.4317 11.0904 22.3413 13.6699 22.3413C13.6866 22.3413 13.7015 22.3413 13.7182 22.3432C15.26 22.3506 16.8017 22.3469 18.3416 22.345C19.8238 22.3432 20.0303 22.3413 20.6756 22.3413ZM38.3192 26.8512L38.321 26.8066C38.321 26.6244 38.1629 26.4477 37.9639 26.4328L37.9193 26.4309C37.7371 26.4309 37.5604 26.589 37.5455 26.788L37.5362 26.894C37.4878 27.2344 37.1884 28.4265 35.2822 28.685L35.232 28.6961C35.0739 28.737 34.9121 28.6998 34.7912 28.6087C34.4062 28.3391 33.8948 28.1754 33.3201 28.1345C31.849 28.0303 30.1883 28.7575 29.3811 29.9329C28.5219 31.1826 28.9794 32.4436 30.4412 32.8508C31.1814 33.0573 32.0927 33.0201 33.004 32.689C33.7776 32.4082 34.4155 31.9637 34.8581 31.4467C35.284 30.9502 35.5202 30.3941 35.5053 29.8715C35.4979 29.6223 35.669 29.4103 35.9015 29.3563L35.8996 29.3545C38.1574 28.817 38.3117 27.0279 38.321 26.8512H38.3192ZM39.3532 26.8512H39.3513V26.868C39.3476 26.9442 39.2472 29.401 36.5152 30.2565C36.4352 30.9055 36.1265 31.549 35.6411 32.1181C35.0888 32.7616 34.3002 33.3139 33.3555 33.658C32.2377 34.0634 31.1014 34.1043 30.1678 33.844C28.0198 33.2451 27.2703 31.1845 28.5349 29.347C29.5448 27.8778 31.5589 26.9777 33.3889 27.106C34.0733 27.1525 34.7019 27.3422 35.2134 27.6547C36.3664 27.478 36.4985 26.9126 36.5133 26.7955V26.788L36.5152 26.7731C36.5282 26.3789 36.6993 26.0292 36.9653 25.7819C37.2368 25.529 37.5734 25.4006 37.9639 25.4006V25.4025C38.3638 25.4118 38.719 25.5829 38.9719 25.8526C39.223 26.1222 39.3532 26.4607 39.3532 26.8512ZM35.6225 17.1228C35.5388 16.7974 35.1055 16.7286 34.9232 17.0075C34.8693 17.0893 34.8451 17.1954 34.8674 17.2976C34.8712 17.3144 35.2022 18.845 33.123 19.667L33.0765 19.6874C32.937 19.7655 32.7771 19.7693 32.6394 19.7153V19.7172C32.1968 19.5405 31.6556 19.5033 31.081 19.6019C29.6359 19.853 28.1946 20.9539 27.6925 22.2892C27.4451 22.9457 27.4544 23.6097 27.7855 24.0988L27.7873 24.0969C28.1184 24.5935 28.7172 24.8501 29.4202 24.8706C30.1901 24.8948 31.0772 24.6344 31.8825 24.0895L31.89 24.0858C32.5632 23.6301 33.069 23.0499 33.3722 22.4492C33.666 21.8652 33.7609 21.2701 33.6214 20.7642C33.5544 20.5262 33.6698 20.2788 33.8818 20.1691C36.0112 19.0737 35.643 17.2121 35.6281 17.1451L35.6225 17.1228ZM36.0224 16.033C36.3274 16.232 36.5542 16.5463 36.6361 16.9257V16.9294C36.6435 16.9592 37.1642 19.3973 34.6945 20.8944C34.7726 21.5453 34.6275 22.2446 34.2909 22.9141C33.9134 23.6636 33.2904 24.3796 32.4665 24.9375L32.4274 24.9654C31.4436 25.6201 30.3557 25.9288 29.3904 25.9009C28.375 25.8693 27.486 25.4713 26.956 24.7088L26.9281 24.6697C26.4018 23.8831 26.3646 22.8918 26.7273 21.9266C27.3596 20.2509 29.104 18.8989 30.908 18.5865C31.5812 18.4693 32.2359 18.5009 32.8068 18.6813C34.0026 18.1829 33.8613 17.5227 33.8594 17.5152V17.5115C33.7795 17.1284 33.8613 16.7509 34.0584 16.4459C34.4862 15.7931 35.3677 15.6053 36.0224 16.033ZM28.7935 10.6416C29.1766 10.6787 29.5113 10.8647 29.7438 11.1381C30.2496 11.7351 30.1753 12.6315 29.5783 13.1392C29.3012 13.3735 28.9348 13.5037 28.5442 13.4702C28.5368 13.4702 28.5275 13.4684 28.5201 13.4684C28.3992 13.4702 27.8245 13.5353 27.5139 14.6568C27.765 15.2017 27.8785 15.8489 27.8468 16.5333C27.7594 18.367 26.6287 20.264 25.0516 21.0953C24.1403 21.577 23.1528 21.6606 22.3066 21.2366C21.4586 20.8107 20.9378 19.9664 20.7779 18.9473C20.6291 17.9895 20.8021 16.8643 21.3358 15.8043C21.7877 14.9041 22.4275 14.1844 23.1323 13.712C23.7554 13.2954 24.4305 13.0648 25.0851 13.0611C26.2679 10.4165 28.7544 10.6378 28.7935 10.6416ZM28.9571 11.8039C28.892 11.7277 28.8009 11.6793 28.6912 11.67C28.667 11.6681 26.7514 11.5026 25.9145 13.7548C25.8402 13.9928 25.6021 14.1491 25.3473 14.1119C24.8284 14.0338 24.2482 14.2049 23.7051 14.5675C23.1416 14.9469 22.6246 15.529 22.2564 16.2636C21.8212 17.1303 21.6761 18.0322 21.7952 18.7892C21.903 19.4866 22.2359 20.0501 22.766 20.316C23.296 20.582 23.9469 20.5113 24.5718 20.184C25.8327 19.5182 26.7477 17.956 26.8165 16.4849C26.8444 15.9028 26.7384 15.3709 26.5115 14.9543C26.4409 14.8242 26.426 14.6661 26.4836 14.5173L26.5004 14.4708C26.982 12.5999 28.2076 12.4474 28.5442 12.4418C28.5721 12.4399 28.6 12.4399 28.6298 12.4418C28.9776 12.4697 29.1766 12.0624 28.9571 11.8039ZM19.357 9.01054C20.1325 8.91569 20.843 9.47176 20.9378 10.2473C21.0327 11.0228 20.4747 11.7351 19.7011 11.8281C19.6955 11.8299 19.6918 11.8299 19.6862 11.8299C19.6025 11.8448 19.0111 11.9917 18.933 13.2024C19.2882 13.686 19.53 14.2941 19.636 14.9711C19.9224 16.7881 19.2027 18.8654 17.8227 20.0017C17.0249 20.6582 16.0745 20.9409 15.1614 20.6973C14.2464 20.4518 13.5657 19.7302 13.2031 18.7631C12.8609 17.8537 12.8051 16.7174 13.1119 15.5718C13.3723 14.601 13.854 13.7678 14.4491 13.1597C14.9736 12.6259 15.5891 12.2651 16.2289 12.1294C16.8389 9.35274 19.2454 9.02356 19.357 9.01054ZM19.768 10.1134C19.6918 10.052 19.5895 10.0222 19.4816 10.0353V10.0334C19.4574 10.0371 17.5345 10.2603 17.1792 12.6631C17.1439 12.9012 16.9449 13.089 16.6957 13.102C16.175 13.1318 15.6412 13.4163 15.1837 13.8831C14.0902 14.9953 13.6289 16.9647 14.1664 18.4042C14.4138 19.0626 14.8527 19.5461 15.4273 19.7005C16.002 19.8548 16.625 19.654 17.1681 19.2058C18.2653 18.3038 18.8474 16.5779 18.6187 15.1273C18.5313 14.5712 18.3304 14.084 18.0384 13.725C17.9231 13.6116 17.8636 13.4424 17.8934 13.2713L17.899 13.221C17.9938 11.2441 19.2194 10.8759 19.5151 10.8145C19.5356 10.8089 19.5542 10.8052 19.5746 10.8033C19.9298 10.7606 20.0303 10.318 19.768 10.1134ZM23.2476 24.4391C22.5893 23.7808 21.6799 23.3735 20.6756 23.3735C18.4755 23.3735 18.416 23.3753 18.3416 23.3753C16.7998 23.3772 15.2562 23.3791 13.7126 23.3716C13.6996 23.3735 13.6847 23.3735 13.6699 23.3735C11.6613 23.3735 10.034 25.0026 10.034 27.0112C10.034 29.0197 11.6613 30.6489 13.6699 30.6489C14.676 30.6489 15.565 31.6364 16.3721 32.5347C16.6083 32.7969 16.837 33.0498 17.0398 33.2488C17.1532 33.3437 17.2239 33.485 17.2239 33.645C17.2239 35.6535 18.853 37.2808 20.8616 37.2808C22.8701 37.2808 24.4974 35.6535 24.4974 33.645C24.4974 31.4114 24.3114 29.2094 24.3114 27.0112C24.3114 26.0069 23.9041 25.0975 23.2476 24.4391Z" fill="#014437" stroke="#014437" stroke-width="0.3"/>
</svg>
