<svg width="624" height="204" viewBox="0 0 624 204" fill="none" xmlns="http://www.w3.org/2000/svg">
<path d="M21.3299 15.1193C20.8299 15.1193 20.3796 15.0199 19.979 14.821C19.5785 14.6222 19.2575 14.3494 19.016 14.0028C18.7745 13.6562 18.6424 13.2614 18.6197 12.8182H19.6424C19.6822 13.2131 19.8612 13.5398 20.1793 13.7983C20.5004 14.054 20.8839 14.1818 21.3299 14.1818C21.6879 14.1818 22.006 14.098 22.2844 13.9304C22.5657 13.7628 22.7859 13.5327 22.945 13.2401C23.1069 12.9446 23.1879 12.6108 23.1879 12.2386C23.1879 11.858 23.104 11.5185 22.9364 11.2202C22.7717 10.919 22.5444 10.6818 22.2546 10.5085C21.9648 10.3352 21.6339 10.2472 21.2617 10.2443C20.9947 10.2415 20.7205 10.2827 20.4393 10.3679C20.158 10.4503 19.9265 10.5568 19.7447 10.6875L18.756 10.5682L19.2844 6.27273H23.8185V7.21023H20.1708L19.864 9.78409H19.9151C20.0941 9.64205 20.3185 9.52415 20.5884 9.4304C20.8583 9.33665 21.1396 9.28977 21.4322 9.28977C21.9663 9.28977 22.4421 9.41761 22.8597 9.6733C23.2802 9.92614 23.6097 10.2727 23.8484 10.7131C24.0898 11.1534 24.2106 11.6562 24.2106 12.2216C24.2106 12.7784 24.0856 13.2756 23.8356 13.7131C23.5884 14.1477 23.2475 14.4915 22.8129 14.7443C22.3782 14.9943 21.8839 15.1193 21.3299 15.1193ZM28.75 15.1193C28.108 15.1193 27.5611 14.9446 27.1094 14.5952C26.6577 14.2429 26.3125 13.733 26.0739 13.0653C25.8352 12.3949 25.7159 11.5852 25.7159 10.6364C25.7159 9.69318 25.8352 8.88778 26.0739 8.22017C26.3153 7.54972 26.6619 7.03835 27.1136 6.68608C27.5682 6.33097 28.1136 6.15341 28.75 6.15341C29.3864 6.15341 29.9304 6.33097 30.3821 6.68608C30.8366 7.03835 31.1832 7.54972 31.4219 8.22017C31.6634 8.88778 31.7841 9.69318 31.7841 10.6364C31.7841 11.5852 31.6648 12.3949 31.4261 13.0653C31.1875 13.733 30.8423 14.2429 30.3906 14.5952C29.9389 14.9446 29.392 15.1193 28.75 15.1193ZM28.75 14.1818C29.3864 14.1818 29.8807 13.875 30.233 13.2614C30.5852 12.6477 30.7614 11.7727 30.7614 10.6364C30.7614 9.88068 30.6804 9.23722 30.5185 8.70597C30.3594 8.17472 30.1293 7.76989 29.8281 7.49148C29.5298 7.21307 29.1705 7.07386 28.75 7.07386C28.1193 7.07386 27.6264 7.38494 27.2713 8.0071C26.9162 8.62642 26.7386 9.50284 26.7386 10.6364C26.7386 11.392 26.8182 12.0341 26.9773 12.5625C27.1364 13.0909 27.3651 13.4929 27.6634 13.7685C27.9645 14.044 28.3267 14.1818 28.75 14.1818ZM36.25 15.1193C35.608 15.1193 35.0611 14.9446 34.6094 14.5952C34.1577 14.2429 33.8125 13.733 33.5739 13.0653C33.3352 12.3949 33.2159 11.5852 33.2159 10.6364C33.2159 9.69318 33.3352 8.88778 33.5739 8.22017C33.8153 7.54972 34.1619 7.03835 34.6136 6.68608C35.0682 6.33097 35.6136 6.15341 36.25 6.15341C36.8864 6.15341 37.4304 6.33097 37.8821 6.68608C38.3366 7.03835 38.6832 7.54972 38.9219 8.22017C39.1634 8.88778 39.2841 9.69318 39.2841 10.6364C39.2841 11.5852 39.1648 12.3949 38.9261 13.0653C38.6875 13.733 38.3423 14.2429 37.8906 14.5952C37.4389 14.9446 36.892 15.1193 36.25 15.1193ZM36.25 14.1818C36.8864 14.1818 37.3807 13.875 37.733 13.2614C38.0852 12.6477 38.2614 11.7727 38.2614 10.6364C38.2614 9.88068 38.1804 9.23722 38.0185 8.70597C37.8594 8.17472 37.6293 7.76989 37.3281 7.49148C37.0298 7.21307 36.6705 7.07386 36.25 7.07386C35.6193 7.07386 35.1264 7.38494 34.7713 8.0071C34.4162 8.62642 34.2386 9.50284 34.2386 10.6364C34.2386 11.392 34.3182 12.0341 34.4773 12.5625C34.6364 13.0909 34.8651 13.4929 35.1634 13.7685C35.4645 14.044 35.8267 14.1818 36.25 14.1818Z" fill="#535862"/>
<line x1="48.5" y1="11" x2="591.5" y2="11" stroke="#F5F5F5" stroke-linecap="round"/>
<path d="M17.9996 43.3103V42.441L21.8349 36.3728H22.4656V37.7194H22.0394L19.1417 42.3046V42.3728H24.3065V43.3103H17.9996ZM22.1076 45.1001V43.0461V42.6413V36.3728H23.1133V45.1001H22.1076ZM28.75 45.2194C28.108 45.2194 27.5611 45.0447 27.1094 44.6953C26.6577 44.343 26.3125 43.8331 26.0739 43.1654C25.8352 42.495 25.7159 41.6853 25.7159 40.7365C25.7159 39.7933 25.8352 38.9879 26.0739 38.3203C26.3153 37.6498 26.6619 37.1384 27.1136 36.7862C27.5682 36.4311 28.1136 36.2535 28.75 36.2535C29.3864 36.2535 29.9304 36.4311 30.3821 36.7862C30.8366 37.1384 31.1832 37.6498 31.4219 38.3203C31.6634 38.9879 31.7841 39.7933 31.7841 40.7365C31.7841 41.6853 31.6648 42.495 31.4261 43.1654C31.1875 43.8331 30.8423 44.343 30.3906 44.6953C29.9389 45.0447 29.392 45.2194 28.75 45.2194ZM28.75 44.2819C29.3864 44.2819 29.8807 43.9751 30.233 43.3615C30.5852 42.7478 30.7614 41.8728 30.7614 40.7365C30.7614 39.9808 30.6804 39.3373 30.5185 38.8061C30.3594 38.2748 30.1293 37.87 29.8281 37.5916C29.5298 37.3132 29.1705 37.174 28.75 37.174C28.1193 37.174 27.6264 37.485 27.2713 38.1072C26.9162 38.7265 26.7386 39.6029 26.7386 40.7365C26.7386 41.4921 26.8182 42.1342 26.9773 42.6626C27.1364 43.191 27.3651 43.593 27.6634 43.8686C27.9645 44.1441 28.3267 44.2819 28.75 44.2819ZM36.25 45.2194C35.608 45.2194 35.0611 45.0447 34.6094 44.6953C34.1577 44.343 33.8125 43.8331 33.5739 43.1654C33.3352 42.495 33.2159 41.6853 33.2159 40.7365C33.2159 39.7933 33.3352 38.9879 33.5739 38.3203C33.8153 37.6498 34.1619 37.1384 34.6136 36.7862C35.0682 36.4311 35.6136 36.2535 36.25 36.2535C36.8864 36.2535 37.4304 36.4311 37.8821 36.7862C38.3366 37.1384 38.6832 37.6498 38.9219 38.3203C39.1634 38.9879 39.2841 39.7933 39.2841 40.7365C39.2841 41.6853 39.1648 42.495 38.9261 43.1654C38.6875 43.8331 38.3423 44.343 37.8906 44.6953C37.4389 45.0447 36.892 45.2194 36.25 45.2194ZM36.25 44.2819C36.8864 44.2819 37.3807 43.9751 37.733 43.3615C38.0852 42.7478 38.2614 41.8728 38.2614 40.7365C38.2614 39.9808 38.1804 39.3373 38.0185 38.8061C37.8594 38.2748 37.6293 37.87 37.3281 37.5916C37.0298 37.3132 36.6705 37.174 36.25 37.174C35.6193 37.174 35.1264 37.485 34.7713 38.1072C34.4162 38.7265 34.2386 39.6029 34.2386 40.7365C34.2386 41.4921 34.3182 42.1342 34.4773 42.6626C34.6364 43.191 34.8651 43.593 35.1634 43.8686C35.4645 44.1441 35.8267 44.2819 36.25 44.2819Z" fill="#535862"/>
<line x1="48.5" y1="41.1001" x2="591.5" y2="41.1001" stroke="#F5F5F5" stroke-linecap="round"/>
<path d="M21.2116 72.8193C20.6491 72.8193 20.1477 72.7227 19.7074 72.5295C19.2699 72.3363 18.9219 72.0678 18.6634 71.7241C18.4077 71.3775 18.2685 70.9755 18.2457 70.5181H19.3196C19.3423 70.7994 19.4389 71.0423 19.6094 71.2468C19.7798 71.4485 20.0028 71.6048 20.2784 71.7156C20.554 71.8264 20.8594 71.8818 21.1946 71.8818C21.5696 71.8818 21.902 71.8164 22.1918 71.6857C22.4815 71.5551 22.7088 71.3732 22.8736 71.1403C23.0384 70.9073 23.1207 70.6375 23.1207 70.3306C23.1207 70.0096 23.0412 69.7269 22.8821 69.4826C22.723 69.2355 22.4901 69.0423 22.1832 68.9031C21.8764 68.7639 21.5014 68.6943 21.0582 68.6943H20.3594V67.7568H21.0582C21.4048 67.7568 21.7088 67.6943 21.9702 67.5693C22.2344 67.4443 22.4403 67.2681 22.5881 67.0409C22.7386 66.8136 22.8139 66.5465 22.8139 66.2397C22.8139 65.9443 22.7486 65.6872 22.6179 65.4684C22.4872 65.2497 22.3026 65.0792 22.0639 64.9571C21.8281 64.8349 21.5497 64.7738 21.2287 64.7738C20.9276 64.7738 20.6435 64.8292 20.3764 64.94C20.1122 65.048 19.8963 65.2056 19.7287 65.413C19.5611 65.6176 19.4702 65.8647 19.456 66.1545H18.4332C18.4503 65.6971 18.5881 65.2965 18.8466 64.9528C19.1051 64.6062 19.4432 64.3363 19.8608 64.1431C20.2813 63.95 20.7429 63.8534 21.2457 63.8534C21.7855 63.8534 22.2486 63.9627 22.6349 64.1815C23.0213 64.3974 23.3182 64.6829 23.5256 65.038C23.733 65.3931 23.8366 65.7767 23.8366 66.1886C23.8366 66.6801 23.7074 67.0991 23.4489 67.4457C23.1932 67.7923 22.8452 68.0323 22.4048 68.1659V68.234C22.956 68.325 23.3864 68.5593 23.696 68.9372C24.0057 69.3122 24.1605 69.7767 24.1605 70.3306C24.1605 70.8051 24.0313 71.2312 23.7727 71.609C23.517 71.984 23.1676 72.2795 22.7244 72.4954C22.2813 72.7113 21.777 72.8193 21.2116 72.8193ZM28.75 72.8193C28.108 72.8193 27.5611 72.6446 27.1094 72.2951C26.6577 71.9428 26.3125 71.4329 26.0739 70.7653C25.8352 70.0948 25.7159 69.2852 25.7159 68.3363C25.7159 67.3931 25.8352 66.5877 26.0739 65.9201C26.3153 65.2497 26.6619 64.7383 27.1136 64.386C27.5682 64.0309 28.1136 63.8534 28.75 63.8534C29.3864 63.8534 29.9304 64.0309 30.3821 64.386C30.8366 64.7383 31.1832 65.2497 31.4219 65.9201C31.6634 66.5877 31.7841 67.3931 31.7841 68.3363C31.7841 69.2852 31.6648 70.0948 31.4261 70.7653C31.1875 71.4329 30.8423 71.9428 30.3906 72.2951C29.9389 72.6446 29.392 72.8193 28.75 72.8193ZM28.75 71.8818C29.3864 71.8818 29.8807 71.575 30.233 70.9613C30.5852 70.3477 30.7614 69.4727 30.7614 68.3363C30.7614 67.5806 30.6804 66.9372 30.5185 66.4059C30.3594 65.8747 30.1293 65.4698 29.8281 65.1914C29.5298 64.913 29.1705 64.7738 28.75 64.7738C28.1193 64.7738 27.6264 65.0849 27.2713 65.7071C26.9162 66.3264 26.7386 67.2028 26.7386 68.3363C26.7386 69.092 26.8182 69.734 26.9773 70.2625C27.1364 70.7909 27.3651 71.1928 27.6634 71.4684C27.9645 71.744 28.3267 71.8818 28.75 71.8818ZM36.25 72.8193C35.608 72.8193 35.0611 72.6446 34.6094 72.2951C34.1577 71.9428 33.8125 71.4329 33.5739 70.7653C33.3352 70.0948 33.2159 69.2852 33.2159 68.3363C33.2159 67.3931 33.3352 66.5877 33.5739 65.9201C33.8153 65.2497 34.1619 64.7383 34.6136 64.386C35.0682 64.0309 35.6136 63.8534 36.25 63.8534C36.8864 63.8534 37.4304 64.0309 37.8821 64.386C38.3366 64.7383 38.6832 65.2497 38.9219 65.9201C39.1634 66.5877 39.2841 67.3931 39.2841 68.3363C39.2841 69.2852 39.1648 70.0948 38.9261 70.7653C38.6875 71.4329 38.3423 71.9428 37.8906 72.2951C37.4389 72.6446 36.892 72.8193 36.25 72.8193ZM36.25 71.8818C36.8864 71.8818 37.3807 71.575 37.733 70.9613C38.0852 70.3477 38.2614 69.4727 38.2614 68.3363C38.2614 67.5806 38.1804 66.9372 38.0185 66.4059C37.8594 65.8747 37.6293 65.4698 37.3281 65.1914C37.0298 64.913 36.6705 64.7738 36.25 64.7738C35.6193 64.7738 35.1264 65.0849 34.7713 65.7071C34.4162 66.3264 34.2386 67.2028 34.2386 68.3363C34.2386 69.092 34.3182 69.734 34.4773 70.2625C34.6364 70.7909 34.8651 71.1928 35.1634 71.4684C35.4645 71.744 35.8267 71.8818 36.25 71.8818Z" fill="#535862"/>
<line x1="48.5" y1="68.7" x2="591.5" y2="68.7" stroke="#F5F5F5" stroke-linecap="round"/>
<path d="M18.6378 100.3V99.533L21.5185 96.3796C21.8565 96.0103 22.1349 95.6893 22.3537 95.4165C22.5724 95.141 22.7344 94.8824 22.8395 94.641C22.9474 94.3966 23.0014 94.141 23.0014 93.8739C23.0014 93.5671 22.9276 93.3015 22.7798 93.077C22.6349 92.8526 22.4361 92.6793 22.1832 92.5572C21.9304 92.435 21.6463 92.3739 21.331 92.3739C20.9957 92.3739 20.7031 92.4435 20.4531 92.5827C20.206 92.7191 20.0142 92.9108 19.8778 93.158C19.7443 93.4052 19.6776 93.6949 19.6776 94.0273H18.6719C18.6719 93.516 18.7898 93.0671 19.0256 92.6807C19.2614 92.2944 19.5824 91.9932 19.9886 91.7773C20.3977 91.5614 20.8565 91.4535 21.3651 91.4535C21.8764 91.4535 22.3295 91.5614 22.7244 91.7773C23.1193 91.9932 23.429 92.2844 23.6534 92.6509C23.8778 93.0174 23.9901 93.425 23.9901 93.8739C23.9901 94.1949 23.9318 94.5089 23.8153 94.8157C23.7017 95.1197 23.5028 95.4591 23.2188 95.8341C22.9375 96.2063 22.5469 96.6608 22.0469 97.1978L20.0866 99.2944V99.3625H24.1435V100.3H18.6378ZM28.75 100.419C28.108 100.419 27.5611 100.245 27.1094 99.8952C26.6577 99.5429 26.3125 99.033 26.0739 98.3654C25.8352 97.6949 25.7159 96.8853 25.7159 95.9364C25.7159 94.9932 25.8352 94.1878 26.0739 93.5202C26.3153 92.8498 26.6619 92.3384 27.1136 91.9861C27.5682 91.631 28.1136 91.4535 28.75 91.4535C29.3864 91.4535 29.9304 91.631 30.3821 91.9861C30.8366 92.3384 31.1832 92.8498 31.4219 93.5202C31.6634 94.1878 31.7841 94.9932 31.7841 95.9364C31.7841 96.8853 31.6648 97.6949 31.4261 98.3654C31.1875 99.033 30.8423 99.5429 30.3906 99.8952C29.9389 100.245 29.392 100.419 28.75 100.419ZM28.75 99.4819C29.3864 99.4819 29.8807 99.175 30.233 98.5614C30.5852 97.9478 30.7614 97.0728 30.7614 95.9364C30.7614 95.1807 30.6804 94.5373 30.5185 94.006C30.3594 93.4748 30.1293 93.0699 29.8281 92.7915C29.5298 92.5131 29.1705 92.3739 28.75 92.3739C28.1193 92.3739 27.6264 92.685 27.2713 93.3072C26.9162 93.9265 26.7386 94.8029 26.7386 95.9364C26.7386 96.6921 26.8182 97.3341 26.9773 97.8625C27.1364 98.391 27.3651 98.7929 27.6634 99.0685C27.9645 99.3441 28.3267 99.4819 28.75 99.4819ZM36.25 100.419C35.608 100.419 35.0611 100.245 34.6094 99.8952C34.1577 99.5429 33.8125 99.033 33.5739 98.3654C33.3352 97.6949 33.2159 96.8853 33.2159 95.9364C33.2159 94.9932 33.3352 94.1878 33.5739 93.5202C33.8153 92.8498 34.1619 92.3384 34.6136 91.9861C35.0682 91.631 35.6136 91.4535 36.25 91.4535C36.8864 91.4535 37.4304 91.631 37.8821 91.9861C38.3366 92.3384 38.6832 92.8498 38.9219 93.5202C39.1634 94.1878 39.2841 94.9932 39.2841 95.9364C39.2841 96.8853 39.1648 97.6949 38.9261 98.3654C38.6875 99.033 38.3423 99.5429 37.8906 99.8952C37.4389 100.245 36.892 100.419 36.25 100.419ZM36.25 99.4819C36.8864 99.4819 37.3807 99.175 37.733 98.5614C38.0852 97.9478 38.2614 97.0728 38.2614 95.9364C38.2614 95.1807 38.1804 94.5373 38.0185 94.006C37.8594 93.4748 37.6293 93.0699 37.3281 92.7915C37.0298 92.5131 36.6705 92.3739 36.25 92.3739C35.6193 92.3739 35.1264 92.685 34.7713 93.3072C34.4162 93.9265 34.2386 94.8029 34.2386 95.9364C34.2386 96.6921 34.3182 97.3341 34.4773 97.8625C34.6364 98.391 34.8651 98.7929 35.1634 99.0685C35.4645 99.3441 35.8267 99.4819 36.25 99.4819Z" fill="#535862"/>
<line x1="48.5" y1="96.3" x2="591.5" y2="96.3" stroke="#F5F5F5" stroke-linecap="round"/>
<path d="M23.3935 119.173V127.9H22.3366V120.281H22.2855L20.1548 121.695V120.621L22.3366 119.173H23.3935ZM28.75 128.019C28.108 128.019 27.5611 127.845 27.1094 127.495C26.6577 127.143 26.3125 126.633 26.0739 125.965C25.8352 125.295 25.7159 124.485 25.7159 123.536C25.7159 122.593 25.8352 121.788 26.0739 121.12C26.3153 120.45 26.6619 119.938 27.1136 119.586C27.5682 119.231 28.1136 119.053 28.75 119.053C29.3864 119.053 29.9304 119.231 30.3821 119.586C30.8366 119.938 31.1832 120.45 31.4219 121.12C31.6634 121.788 31.7841 122.593 31.7841 123.536C31.7841 124.485 31.6648 125.295 31.4261 125.965C31.1875 126.633 30.8423 127.143 30.3906 127.495C29.9389 127.845 29.392 128.019 28.75 128.019ZM28.75 127.082C29.3864 127.082 29.8807 126.775 30.233 126.161C30.5852 125.548 30.7614 124.673 30.7614 123.536C30.7614 122.781 30.6804 122.137 30.5185 121.606C30.3594 121.075 30.1293 120.67 29.8281 120.391C29.5298 120.113 29.1705 119.974 28.75 119.974C28.1193 119.974 27.6264 120.285 27.2713 120.907C26.9162 121.526 26.7386 122.403 26.7386 123.536C26.7386 124.292 26.8182 124.934 26.9773 125.462C27.1364 125.991 27.3651 126.393 27.6634 126.668C27.9645 126.944 28.3267 127.082 28.75 127.082ZM36.25 128.019C35.608 128.019 35.0611 127.845 34.6094 127.495C34.1577 127.143 33.8125 126.633 33.5739 125.965C33.3352 125.295 33.2159 124.485 33.2159 123.536C33.2159 122.593 33.3352 121.788 33.5739 121.12C33.8153 120.45 34.1619 119.938 34.6136 119.586C35.0682 119.231 35.6136 119.053 36.25 119.053C36.8864 119.053 37.4304 119.231 37.8821 119.586C38.3366 119.938 38.6832 120.45 38.9219 121.12C39.1634 121.788 39.2841 122.593 39.2841 123.536C39.2841 124.485 39.1648 125.295 38.9261 125.965C38.6875 126.633 38.3423 127.143 37.8906 127.495C37.4389 127.845 36.892 128.019 36.25 128.019ZM36.25 127.082C36.8864 127.082 37.3807 126.775 37.733 126.161C38.0852 125.548 38.2614 124.673 38.2614 123.536C38.2614 122.781 38.1804 122.137 38.0185 121.606C37.8594 121.075 37.6293 120.67 37.3281 120.391C37.0298 120.113 36.6705 119.974 36.25 119.974C35.6193 119.974 35.1264 120.285 34.7713 120.907C34.4162 121.526 34.2386 122.403 34.2386 123.536C34.2386 124.292 34.3182 124.934 34.4773 125.462C34.6364 125.991 34.8651 126.393 35.1634 126.668C35.4645 126.944 35.8267 127.082 36.25 127.082Z" fill="#535862"/>
<line x1="48.5" y1="123.9" x2="591.5" y2="123.9" stroke="#F5F5F5" stroke-linecap="round"/>
<path d="M36.25 155.619C35.608 155.619 35.0611 155.445 34.6094 155.095C34.1577 154.743 33.8125 154.233 33.5739 153.565C33.3352 152.895 33.2159 152.085 33.2159 151.136C33.2159 150.193 33.3352 149.388 33.5739 148.72C33.8153 148.05 34.1619 147.538 34.6136 147.186C35.0682 146.831 35.6136 146.653 36.25 146.653C36.8864 146.653 37.4304 146.831 37.8821 147.186C38.3366 147.538 38.6832 148.05 38.9219 148.72C39.1634 149.388 39.2841 150.193 39.2841 151.136C39.2841 152.085 39.1648 152.895 38.9261 153.565C38.6875 154.233 38.3423 154.743 37.8906 155.095C37.4389 155.445 36.892 155.619 36.25 155.619ZM36.25 154.682C36.8864 154.682 37.3807 154.375 37.733 153.761C38.0852 153.148 38.2614 152.273 38.2614 151.136C38.2614 150.381 38.1804 149.737 38.0185 149.206C37.8594 148.675 37.6293 148.27 37.3281 147.991C37.0298 147.713 36.6705 147.574 36.25 147.574C35.6193 147.574 35.1264 147.885 34.7713 148.507C34.4162 149.126 34.2386 150.003 34.2386 151.136C34.2386 151.892 34.3182 152.534 34.4773 153.062C34.6364 153.591 34.8651 153.993 35.1634 154.268C35.4645 154.544 35.8267 154.682 36.25 154.682Z" fill="#535862"/>
<line x1="48.5" y1="151.5" x2="591.5" y2="151.5" stroke="#F5F5F5" stroke-linecap="round"/>
<path d="M76.7493 164.273H77.8061V170.511C77.8061 171.068 77.7038 171.541 77.4993 171.93C77.2947 172.32 77.0064 172.615 76.6342 172.817C76.2621 173.018 75.8232 173.119 75.3175 173.119C74.8402 173.119 74.4155 173.033 74.0433 172.859C73.6712 172.683 73.3786 172.433 73.1655 172.109C72.9524 171.786 72.8459 171.401 72.8459 170.955H73.8857C73.8857 171.202 73.9467 171.418 74.0689 171.602C74.1939 171.784 74.3643 171.926 74.5803 172.028C74.7962 172.131 75.0419 172.182 75.3175 172.182C75.6214 172.182 75.88 172.118 76.093 171.99C76.3061 171.862 76.468 171.675 76.5788 171.428C76.6925 171.178 76.7493 170.872 76.7493 170.511V164.273ZM81.7138 173.153C81.299 173.153 80.9226 173.075 80.5845 172.919C80.2464 172.76 79.978 172.531 79.7791 172.233C79.5803 171.932 79.4808 171.568 79.4808 171.142C79.4808 170.767 79.5547 170.463 79.7024 170.23C79.8501 169.994 80.0476 169.81 80.2947 169.676C80.5419 169.543 80.8146 169.443 81.1129 169.378C81.4141 169.31 81.7166 169.256 82.0206 169.216C82.4183 169.165 82.7408 169.126 82.9879 169.101C83.2379 169.072 83.4197 169.026 83.5334 168.96C83.6499 168.895 83.7081 168.781 83.7081 168.619V168.585C83.7081 168.165 83.593 167.838 83.3629 167.605C83.1357 167.372 82.7905 167.256 82.3274 167.256C81.8473 167.256 81.4709 167.361 81.1982 167.571C80.9254 167.781 80.7337 168.006 80.6229 168.244L79.6683 167.903C79.8388 167.506 80.0661 167.196 80.3501 166.974C80.6371 166.75 80.9496 166.594 81.2876 166.506C81.6286 166.415 81.9638 166.369 82.2933 166.369C82.5036 166.369 82.745 166.395 83.0178 166.446C83.2933 166.494 83.5589 166.595 83.8146 166.749C84.0732 166.902 84.2876 167.134 84.4581 167.443C84.6286 167.753 84.7138 168.168 84.7138 168.688V173H83.7081V172.114H83.657C83.5888 172.256 83.4751 172.408 83.3161 172.57C83.157 172.732 82.9453 172.869 82.6811 172.983C82.4169 173.097 82.0945 173.153 81.7138 173.153ZM81.8672 172.25C82.2649 172.25 82.6001 172.172 82.8729 172.016C83.1484 171.859 83.3558 171.658 83.495 171.411C83.6371 171.163 83.7081 170.903 83.7081 170.631V169.71C83.6655 169.761 83.5717 169.808 83.4268 169.851C83.2848 169.891 83.12 169.926 82.9325 169.957C82.7479 169.986 82.5675 170.011 82.3913 170.034C82.218 170.054 82.0774 170.071 81.9695 170.085C81.7081 170.119 81.4638 170.175 81.2365 170.251C81.0121 170.325 80.8303 170.437 80.6911 170.588C80.5547 170.736 80.4865 170.937 80.4865 171.193C80.4865 171.543 80.6158 171.807 80.8743 171.986C81.1357 172.162 81.4666 172.25 81.8672 172.25ZM87.555 169.062V173H86.5494V166.455H87.521V167.477H87.6062C87.7596 167.145 87.9925 166.878 88.305 166.676C88.6175 166.472 89.021 166.369 89.5153 166.369C89.9585 166.369 90.3462 166.46 90.6786 166.642C91.011 166.821 91.2695 167.094 91.4542 167.46C91.6388 167.824 91.7312 168.284 91.7312 168.841V173H90.7255V168.909C90.7255 168.395 90.592 167.994 90.3249 167.707C90.0579 167.418 89.6914 167.273 89.2255 167.273C88.9045 167.273 88.6175 167.342 88.3647 167.482C88.1147 167.621 87.9173 167.824 87.7724 168.091C87.6275 168.358 87.555 168.682 87.555 169.062Z" fill="#535862"/>
<path d="M115.693 173V164.273H120.926V165.21H116.75V168.159H120.534V169.097H116.75V173H115.693ZM124.864 173.136C124.233 173.136 123.689 172.997 123.231 172.719C122.777 172.438 122.426 172.045 122.179 171.543C121.935 171.037 121.812 170.449 121.812 169.778C121.812 169.108 121.935 168.517 122.179 168.006C122.426 167.491 122.77 167.091 123.21 166.804C123.653 166.514 124.17 166.369 124.761 166.369C125.102 166.369 125.439 166.426 125.771 166.54C126.104 166.653 126.406 166.838 126.679 167.094C126.952 167.347 127.169 167.682 127.331 168.099C127.493 168.517 127.574 169.031 127.574 169.642V170.068H122.528V169.199H126.551C126.551 168.83 126.477 168.5 126.329 168.21C126.185 167.92 125.977 167.692 125.707 167.524C125.44 167.357 125.125 167.273 124.761 167.273C124.361 167.273 124.014 167.372 123.721 167.571C123.432 167.767 123.209 168.023 123.052 168.338C122.896 168.653 122.818 168.991 122.818 169.352V169.932C122.818 170.426 122.903 170.845 123.074 171.189C123.247 171.53 123.487 171.79 123.794 171.969C124.101 172.145 124.457 172.233 124.864 172.233C125.128 172.233 125.366 172.196 125.579 172.122C125.795 172.045 125.981 171.932 126.138 171.781C126.294 171.628 126.415 171.437 126.5 171.21L127.471 171.483C127.369 171.812 127.197 172.102 126.956 172.352C126.714 172.599 126.416 172.793 126.061 172.932C125.706 173.068 125.307 173.136 124.864 173.136ZM129.24 173V164.273H130.246V167.494H130.331C130.405 167.381 130.507 167.236 130.638 167.06C130.771 166.881 130.962 166.722 131.209 166.582C131.459 166.44 131.797 166.369 132.223 166.369C132.774 166.369 133.26 166.507 133.68 166.783C134.101 167.058 134.429 167.449 134.665 167.955C134.9 168.46 135.018 169.057 135.018 169.744C135.018 170.438 134.9 171.038 134.665 171.547C134.429 172.053 134.102 172.445 133.685 172.723C133.267 172.999 132.785 173.136 132.24 173.136C131.819 173.136 131.483 173.067 131.23 172.928C130.977 172.786 130.783 172.625 130.646 172.446C130.51 172.264 130.405 172.114 130.331 171.994H130.212V173H129.24ZM130.229 169.727C130.229 170.222 130.301 170.658 130.446 171.036C130.591 171.411 130.802 171.705 131.081 171.918C131.359 172.128 131.7 172.233 132.104 172.233C132.524 172.233 132.875 172.122 133.156 171.901C133.44 171.676 133.653 171.375 133.795 170.997C133.94 170.616 134.013 170.193 134.013 169.727C134.013 169.267 133.942 168.852 133.8 168.483C133.66 168.111 133.449 167.817 133.165 167.601C132.883 167.382 132.53 167.273 132.104 167.273C131.694 167.273 131.351 167.376 131.072 167.584C130.794 167.788 130.584 168.075 130.442 168.445C130.3 168.811 130.229 169.239 130.229 169.727Z" fill="#535862"/>
<path d="M158.379 164.273H159.64L162.606 171.517H162.708L165.674 164.273H166.935V173H165.947V166.369H165.862L163.134 173H162.18L159.452 166.369H159.367V173H158.379V164.273ZM170.844 173.153C170.429 173.153 170.053 173.075 169.715 172.919C169.377 172.76 169.108 172.531 168.909 172.233C168.711 171.932 168.611 171.568 168.611 171.142C168.611 170.767 168.685 170.463 168.833 170.23C168.981 169.994 169.178 169.81 169.425 169.676C169.672 169.543 169.945 169.443 170.243 169.378C170.544 169.31 170.847 169.256 171.151 169.216C171.549 169.165 171.871 169.126 172.118 169.101C172.368 169.072 172.55 169.026 172.664 168.96C172.78 168.895 172.838 168.781 172.838 168.619V168.585C172.838 168.165 172.723 167.838 172.493 167.605C172.266 167.372 171.921 167.256 171.458 167.256C170.978 167.256 170.601 167.361 170.329 167.571C170.056 167.781 169.864 168.006 169.753 168.244L168.799 167.903C168.969 167.506 169.196 167.196 169.481 166.974C169.767 166.75 170.08 166.594 170.418 166.506C170.759 166.415 171.094 166.369 171.424 166.369C171.634 166.369 171.875 166.395 172.148 166.446C172.424 166.494 172.689 166.595 172.945 166.749C173.204 166.902 173.418 167.134 173.588 167.443C173.759 167.753 173.844 168.168 173.844 168.688V173H172.838V172.114H172.787C172.719 172.256 172.606 172.408 172.446 172.57C172.287 172.732 172.076 172.869 171.811 172.983C171.547 173.097 171.225 173.153 170.844 173.153ZM170.998 172.25C171.395 172.25 171.731 172.172 172.003 172.016C172.279 171.859 172.486 171.658 172.625 171.411C172.767 171.163 172.838 170.903 172.838 170.631V169.71C172.796 169.761 172.702 169.808 172.557 169.851C172.415 169.891 172.25 169.926 172.063 169.957C171.878 169.986 171.698 170.011 171.522 170.034C171.348 170.054 171.208 170.071 171.1 170.085C170.838 170.119 170.594 170.175 170.367 170.251C170.142 170.325 169.961 170.437 169.821 170.588C169.685 170.736 169.617 170.937 169.617 171.193C169.617 171.543 169.746 171.807 170.005 171.986C170.266 172.162 170.597 172.25 170.998 172.25ZM175.68 173V166.455H176.651V167.443H176.72C176.839 167.119 177.055 166.857 177.367 166.655C177.68 166.453 178.032 166.352 178.424 166.352C178.498 166.352 178.59 166.354 178.701 166.357C178.812 166.359 178.896 166.364 178.952 166.369V167.392C178.918 167.384 178.84 167.371 178.718 167.354C178.599 167.334 178.472 167.324 178.339 167.324C178.021 167.324 177.737 167.391 177.487 167.524C177.239 167.655 177.043 167.837 176.898 168.07C176.756 168.3 176.685 168.562 176.685 168.858V173H175.68Z" fill="#535862"/>
<path d="M202.381 173H201.273L204.477 164.273H205.568L208.773 173H207.665L205.057 165.653H204.989L202.381 173ZM202.79 169.591H207.256V170.528H202.79V169.591ZM209.996 175.455V166.455H210.967V167.494H211.087C211.16 167.381 211.263 167.236 211.393 167.06C211.527 166.881 211.717 166.722 211.964 166.582C212.214 166.44 212.552 166.369 212.979 166.369C213.53 166.369 214.016 166.507 214.436 166.783C214.856 167.058 215.185 167.449 215.42 167.955C215.656 168.46 215.774 169.057 215.774 169.744C215.774 170.438 215.656 171.038 215.42 171.547C215.185 172.053 214.858 172.445 214.44 172.723C214.023 172.999 213.541 173.136 212.996 173.136C212.575 173.136 212.239 173.067 211.986 172.928C211.733 172.786 211.538 172.625 211.402 172.446C211.266 172.264 211.16 172.114 211.087 171.994H211.001V175.455H209.996ZM210.984 169.727C210.984 170.222 211.057 170.658 211.202 171.036C211.347 171.411 211.558 171.705 211.837 171.918C212.115 172.128 212.456 172.233 212.859 172.233C213.28 172.233 213.631 172.122 213.912 171.901C214.196 171.676 214.409 171.375 214.551 170.997C214.696 170.616 214.768 170.193 214.768 169.727C214.768 169.267 214.697 168.852 214.555 168.483C214.416 168.111 214.204 167.817 213.92 167.601C213.639 167.382 213.285 167.273 212.859 167.273C212.45 167.273 212.106 167.376 211.828 167.584C211.55 167.788 211.339 168.075 211.197 168.445C211.055 168.811 210.984 169.239 210.984 169.727ZM217.308 173V166.455H218.28V167.443H218.348C218.467 167.119 218.683 166.857 218.996 166.655C219.308 166.453 219.66 166.352 220.052 166.352C220.126 166.352 220.219 166.354 220.329 166.357C220.44 166.359 220.524 166.364 220.581 166.369V167.392C220.547 167.384 220.469 167.371 220.347 167.354C220.227 167.334 220.101 167.324 219.967 167.324C219.649 167.324 219.365 167.391 219.115 167.524C218.868 167.655 218.672 167.837 218.527 168.07C218.385 168.3 218.314 168.562 218.314 168.858V173H217.308Z" fill="#535862"/>
<path d="M243.661 164.273H244.922L247.888 171.517H247.99L250.956 164.273H252.218V173H251.229V166.369H251.144L248.417 173H247.462L244.735 166.369H244.649V173H243.661V164.273ZM256.126 173.153C255.712 173.153 255.335 173.075 254.997 172.919C254.659 172.76 254.391 172.531 254.192 172.233C253.993 171.932 253.893 171.568 253.893 171.142C253.893 170.767 253.967 170.463 254.115 170.23C254.263 169.994 254.46 169.81 254.707 169.676C254.955 169.543 255.227 169.443 255.526 169.378C255.827 169.31 256.129 169.256 256.433 169.216C256.831 169.165 257.153 169.126 257.401 169.101C257.651 169.072 257.832 169.026 257.946 168.96C258.062 168.895 258.121 168.781 258.121 168.619V168.585C258.121 168.165 258.006 167.838 257.776 167.605C257.548 167.372 257.203 167.256 256.74 167.256C256.26 167.256 255.883 167.361 255.611 167.571C255.338 167.781 255.146 168.006 255.035 168.244L254.081 167.903C254.251 167.506 254.479 167.196 254.763 166.974C255.05 166.75 255.362 166.594 255.7 166.506C256.041 166.415 256.376 166.369 256.706 166.369C256.916 166.369 257.158 166.395 257.43 166.446C257.706 166.494 257.972 166.595 258.227 166.749C258.486 166.902 258.7 167.134 258.871 167.443C259.041 167.753 259.126 168.168 259.126 168.688V173H258.121V172.114H258.07C258.001 172.256 257.888 172.408 257.729 172.57C257.57 172.732 257.358 172.869 257.094 172.983C256.83 173.097 256.507 173.153 256.126 173.153ZM256.28 172.25C256.678 172.25 257.013 172.172 257.285 172.016C257.561 171.859 257.768 171.658 257.908 171.411C258.05 171.163 258.121 170.903 258.121 170.631V169.71C258.078 169.761 257.984 169.808 257.839 169.851C257.697 169.891 257.533 169.926 257.345 169.957C257.16 169.986 256.98 170.011 256.804 170.034C256.631 170.054 256.49 170.071 256.382 170.085C256.121 170.119 255.876 170.175 255.649 170.251C255.425 170.325 255.243 170.437 255.104 170.588C254.967 170.736 254.899 170.937 254.899 171.193C254.899 171.543 255.028 171.807 255.287 171.986C255.548 172.162 255.879 172.25 256.28 172.25ZM261.375 175.455C261.205 175.455 261.053 175.44 260.919 175.412C260.786 175.386 260.693 175.361 260.642 175.335L260.898 174.449C261.142 174.511 261.358 174.534 261.546 174.517C261.733 174.5 261.899 174.416 262.044 174.266C262.192 174.118 262.327 173.878 262.449 173.545L262.637 173.034L260.216 166.455H261.307L263.114 171.67H263.182L264.989 166.455H266.08L263.301 173.955C263.176 174.293 263.022 174.572 262.837 174.794C262.652 175.018 262.438 175.185 262.193 175.293C261.952 175.401 261.679 175.455 261.375 175.455Z" fill="#535862"/>
<path d="M292.825 164.273H293.882V170.511C293.882 171.068 293.78 171.541 293.575 171.93C293.371 172.32 293.083 172.615 292.71 172.817C292.338 173.018 291.899 173.119 291.394 173.119C290.916 173.119 290.492 173.033 290.119 172.859C289.747 172.683 289.455 172.433 289.242 172.109C289.029 171.786 288.922 171.401 288.922 170.955H289.962C289.962 171.202 290.023 171.418 290.145 171.602C290.27 171.784 290.441 171.926 290.656 172.028C290.872 172.131 291.118 172.182 291.394 172.182C291.698 172.182 291.956 172.118 292.169 171.99C292.382 171.862 292.544 171.675 292.655 171.428C292.769 171.178 292.825 170.872 292.825 170.511V164.273ZM299.989 170.324V166.455H300.994V173H299.989V171.892H299.921C299.767 172.224 299.529 172.507 299.205 172.74C298.881 172.97 298.472 173.085 297.977 173.085C297.568 173.085 297.205 172.996 296.887 172.817C296.568 172.635 296.318 172.362 296.137 171.999C295.955 171.632 295.864 171.17 295.864 170.614V166.455H296.869V170.545C296.869 171.023 297.003 171.403 297.27 171.688C297.54 171.972 297.884 172.114 298.301 172.114C298.551 172.114 298.806 172.05 299.064 171.922C299.325 171.794 299.544 171.598 299.72 171.334C299.899 171.07 299.989 170.733 299.989 170.324ZM303.842 169.062V173H302.836V166.455H303.808V167.477H303.893C304.047 167.145 304.28 166.878 304.592 166.676C304.905 166.472 305.308 166.369 305.802 166.369C306.246 166.369 306.633 166.46 306.966 166.642C307.298 166.821 307.557 167.094 307.741 167.46C307.926 167.824 308.018 168.284 308.018 168.841V173H307.013V168.909C307.013 168.395 306.879 167.994 306.612 167.707C306.345 167.418 305.979 167.273 305.513 167.273C305.192 167.273 304.905 167.342 304.652 167.482C304.402 167.621 304.204 167.824 304.059 168.091C303.915 168.358 303.842 168.682 303.842 169.062Z" fill="#535862"/>
<path d="M335.548 164.273H336.605V170.511C336.605 171.068 336.503 171.541 336.298 171.93C336.094 172.32 335.805 172.615 335.433 172.817C335.061 173.018 334.622 173.119 334.116 173.119C333.639 173.119 333.214 173.033 332.842 172.859C332.47 172.683 332.177 172.433 331.964 172.109C331.751 171.786 331.645 171.401 331.645 170.955H332.684C332.684 171.202 332.746 171.418 332.868 171.602C332.993 171.784 333.163 171.926 333.379 172.028C333.595 172.131 333.841 172.182 334.116 172.182C334.42 172.182 334.679 172.118 334.892 171.99C335.105 171.862 335.267 171.675 335.378 171.428C335.491 171.178 335.548 170.872 335.548 170.511V164.273ZM342.711 170.324V166.455H343.717V173H342.711V171.892H342.643C342.49 172.224 342.251 172.507 341.927 172.74C341.604 172.97 341.194 173.085 340.7 173.085C340.291 173.085 339.927 172.996 339.609 172.817C339.291 172.635 339.041 172.362 338.859 171.999C338.677 171.632 338.586 171.17 338.586 170.614V166.455H339.592V170.545C339.592 171.023 339.726 171.403 339.993 171.688C340.263 171.972 340.606 172.114 341.024 172.114C341.274 172.114 341.528 172.05 341.787 171.922C342.048 171.794 342.267 171.598 342.443 171.334C342.622 171.07 342.711 170.733 342.711 170.324ZM346.565 164.273V173H345.559V164.273H346.565Z" fill="#535862"/>
<path d="M371.172 173H370.064L373.269 164.273H374.36L377.564 173H376.456L373.848 165.653H373.78L371.172 173ZM371.581 169.591H376.047V170.528H371.581V169.591ZM382.912 170.324V166.455H383.918V173H382.912V171.892H382.844C382.691 172.224 382.452 172.507 382.128 172.74C381.804 172.97 381.395 173.085 380.901 173.085C380.492 173.085 380.128 172.996 379.81 172.817C379.492 172.635 379.242 172.362 379.06 171.999C378.878 171.632 378.787 171.17 378.787 170.614V166.455H379.793V170.545C379.793 171.023 379.926 171.403 380.193 171.688C380.463 171.972 380.807 172.114 381.225 172.114C381.475 172.114 381.729 172.05 381.987 171.922C382.249 171.794 382.468 171.598 382.644 171.334C382.823 171.07 382.912 170.733 382.912 170.324ZM388.402 175.591C387.916 175.591 387.498 175.528 387.149 175.403C386.8 175.281 386.508 175.119 386.275 174.918C386.045 174.719 385.862 174.506 385.726 174.278L386.527 173.716C386.618 173.835 386.733 173.972 386.872 174.125C387.011 174.281 387.202 174.416 387.443 174.53C387.687 174.646 388.007 174.705 388.402 174.705C388.93 174.705 389.366 174.577 389.71 174.321C390.054 174.065 390.226 173.665 390.226 173.119V171.79H390.14C390.067 171.909 389.962 172.057 389.825 172.233C389.692 172.406 389.498 172.561 389.246 172.697C388.996 172.831 388.658 172.898 388.231 172.898C387.703 172.898 387.229 172.773 386.808 172.523C386.39 172.273 386.06 171.909 385.815 171.432C385.574 170.955 385.453 170.375 385.453 169.693C385.453 169.023 385.571 168.439 385.807 167.942C386.042 167.442 386.371 167.055 386.791 166.783C387.212 166.507 387.697 166.369 388.248 166.369C388.675 166.369 389.013 166.44 389.263 166.582C389.515 166.722 389.709 166.881 389.842 167.06C389.979 167.236 390.084 167.381 390.158 167.494H390.26V166.455H391.231V173.188C391.231 173.75 391.104 174.207 390.848 174.56C390.595 174.915 390.254 175.175 389.825 175.339C389.399 175.507 388.925 175.591 388.402 175.591ZM388.368 171.994C388.771 171.994 389.112 171.902 389.39 171.717C389.669 171.533 389.881 171.267 390.025 170.92C390.17 170.574 390.243 170.159 390.243 169.676C390.243 169.205 390.172 168.788 390.03 168.428C389.888 168.067 389.677 167.784 389.399 167.58C389.121 167.375 388.777 167.273 388.368 167.273C387.942 167.273 387.587 167.381 387.302 167.597C387.021 167.812 386.81 168.102 386.667 168.466C386.528 168.83 386.459 169.233 386.459 169.676C386.459 170.131 386.53 170.533 386.672 170.882C386.817 171.229 387.03 171.501 387.311 171.7C387.595 171.896 387.947 171.994 388.368 171.994Z" fill="#535862"/>
<path d="M419.946 166.455C419.895 166.023 419.687 165.688 419.324 165.449C418.96 165.21 418.514 165.091 417.986 165.091C417.599 165.091 417.261 165.153 416.971 165.278C416.684 165.403 416.46 165.575 416.298 165.794C416.139 166.013 416.059 166.261 416.059 166.54C416.059 166.773 416.115 166.973 416.226 167.141C416.339 167.305 416.484 167.443 416.66 167.554C416.836 167.662 417.021 167.751 417.214 167.822C417.407 167.891 417.585 167.946 417.747 167.989L418.633 168.227C418.861 168.287 419.113 168.369 419.392 168.474C419.673 168.58 419.941 168.723 420.197 168.905C420.456 169.084 420.669 169.314 420.836 169.595C421.004 169.876 421.088 170.222 421.088 170.631C421.088 171.102 420.964 171.528 420.717 171.909C420.473 172.29 420.115 172.592 419.643 172.817C419.174 173.041 418.605 173.153 417.934 173.153C417.309 173.153 416.768 173.053 416.311 172.851C415.856 172.649 415.498 172.368 415.237 172.007C414.978 171.646 414.832 171.227 414.798 170.75H415.889C415.917 171.08 416.028 171.352 416.221 171.568C416.417 171.781 416.665 171.94 416.963 172.045C417.264 172.148 417.588 172.199 417.934 172.199C418.338 172.199 418.7 172.134 419.021 172.003C419.342 171.869 419.596 171.685 419.784 171.449C419.971 171.21 420.065 170.932 420.065 170.614C420.065 170.324 419.984 170.088 419.822 169.906C419.66 169.724 419.447 169.577 419.183 169.463C418.919 169.349 418.633 169.25 418.326 169.165L417.253 168.858C416.571 168.662 416.031 168.382 415.633 168.018C415.236 167.655 415.037 167.179 415.037 166.591C415.037 166.102 415.169 165.676 415.433 165.312C415.7 164.946 416.058 164.662 416.507 164.46C416.959 164.256 417.463 164.153 418.02 164.153C418.582 164.153 419.082 164.254 419.52 164.456C419.957 164.655 420.304 164.928 420.559 165.274C420.818 165.621 420.954 166.014 420.968 166.455H419.946ZM425.433 173.136C424.803 173.136 424.259 172.997 423.801 172.719C423.347 172.438 422.996 172.045 422.749 171.543C422.504 171.037 422.382 170.449 422.382 169.778C422.382 169.108 422.504 168.517 422.749 168.006C422.996 167.491 423.34 167.091 423.78 166.804C424.223 166.514 424.74 166.369 425.331 166.369C425.672 166.369 426.009 166.426 426.341 166.54C426.673 166.653 426.976 166.838 427.249 167.094C427.521 167.347 427.739 167.682 427.901 168.099C428.063 168.517 428.144 169.031 428.144 169.642V170.068H423.098V169.199H427.121C427.121 168.83 427.047 168.5 426.899 168.21C426.754 167.92 426.547 167.692 426.277 167.524C426.01 167.357 425.695 167.273 425.331 167.273C424.93 167.273 424.584 167.372 424.291 167.571C424.002 167.767 423.778 168.023 423.622 168.338C423.466 168.653 423.388 168.991 423.388 169.352V169.932C423.388 170.426 423.473 170.845 423.644 171.189C423.817 171.53 424.057 171.79 424.364 171.969C424.671 172.145 425.027 172.233 425.433 172.233C425.698 172.233 425.936 172.196 426.149 172.122C426.365 172.045 426.551 171.932 426.707 171.781C426.864 171.628 426.984 171.437 427.07 171.21L428.041 171.483C427.939 171.812 427.767 172.102 427.526 172.352C427.284 172.599 426.986 172.793 426.631 172.932C426.276 173.068 425.877 173.136 425.433 173.136ZM429.673 175.455V166.455H430.645V167.494H430.764C430.838 167.381 430.94 167.236 431.071 167.06C431.205 166.881 431.395 166.722 431.642 166.582C431.892 166.44 432.23 166.369 432.656 166.369C433.207 166.369 433.693 166.507 434.114 166.783C434.534 167.058 434.862 167.449 435.098 167.955C435.334 168.46 435.452 169.057 435.452 169.744C435.452 170.438 435.334 171.038 435.098 171.547C434.862 172.053 434.536 172.445 434.118 172.723C433.7 172.999 433.219 173.136 432.673 173.136C432.253 173.136 431.916 173.067 431.663 172.928C431.411 172.786 431.216 172.625 431.08 172.446C430.943 172.264 430.838 172.114 430.764 171.994H430.679V175.455H429.673ZM430.662 169.727C430.662 170.222 430.734 170.658 430.879 171.036C431.024 171.411 431.236 171.705 431.514 171.918C431.793 172.128 432.134 172.233 432.537 172.233C432.957 172.233 433.308 172.122 433.59 171.901C433.874 171.676 434.087 171.375 434.229 170.997C434.374 170.616 434.446 170.193 434.446 169.727C434.446 169.267 434.375 168.852 434.233 168.483C434.094 168.111 433.882 167.817 433.598 167.601C433.317 167.382 432.963 167.273 432.537 167.273C432.128 167.273 431.784 167.376 431.506 167.584C431.227 167.788 431.017 168.075 430.875 168.445C430.733 168.811 430.662 169.239 430.662 169.727Z" fill="#535862"/>
<path d="M466.546 168.636C466.546 169.557 466.38 170.352 466.047 171.023C465.715 171.693 465.259 172.21 464.679 172.574C464.1 172.938 463.438 173.119 462.694 173.119C461.949 173.119 461.287 172.938 460.708 172.574C460.128 172.21 459.672 171.693 459.34 171.023C459.008 170.352 458.841 169.557 458.841 168.636C458.841 167.716 459.008 166.92 459.34 166.25C459.672 165.58 460.128 165.062 460.708 164.699C461.287 164.335 461.949 164.153 462.694 164.153C463.438 164.153 464.1 164.335 464.679 164.699C465.259 165.062 465.715 165.58 466.047 166.25C466.38 166.92 466.546 167.716 466.546 168.636ZM465.523 168.636C465.523 167.881 465.397 167.243 465.144 166.723C464.894 166.203 464.554 165.81 464.125 165.543C463.699 165.276 463.222 165.142 462.694 165.142C462.165 165.142 461.687 165.276 461.258 165.543C460.831 165.81 460.492 166.203 460.239 166.723C459.989 167.243 459.864 167.881 459.864 168.636C459.864 169.392 459.989 170.03 460.239 170.55C460.492 171.07 460.831 171.463 461.258 171.73C461.687 171.997 462.165 172.131 462.694 172.131C463.222 172.131 463.699 171.997 464.125 171.73C464.554 171.463 464.894 171.07 465.144 170.55C465.397 170.03 465.523 169.392 465.523 168.636ZM470.846 173.136C470.232 173.136 469.704 172.991 469.26 172.702C468.817 172.412 468.476 172.013 468.238 171.504C467.999 170.996 467.88 170.415 467.88 169.761C467.88 169.097 468.002 168.51 468.246 168.001C468.493 167.49 468.837 167.091 469.277 166.804C469.721 166.514 470.238 166.369 470.829 166.369C471.289 166.369 471.704 166.455 472.073 166.625C472.442 166.795 472.745 167.034 472.981 167.341C473.216 167.648 473.363 168.006 473.42 168.415H472.414C472.337 168.116 472.167 167.852 471.902 167.622C471.641 167.389 471.289 167.273 470.846 167.273C470.454 167.273 470.11 167.375 469.814 167.58C469.522 167.781 469.293 168.067 469.128 168.436C468.966 168.803 468.885 169.233 468.885 169.727C468.885 170.233 468.965 170.673 469.124 171.048C469.286 171.423 469.513 171.714 469.806 171.922C470.101 172.129 470.448 172.233 470.846 172.233C471.107 172.233 471.344 172.188 471.557 172.097C471.77 172.006 471.951 171.875 472.098 171.705C472.246 171.534 472.351 171.33 472.414 171.091H473.42C473.363 171.477 473.222 171.825 472.998 172.135C472.776 172.442 472.482 172.686 472.116 172.868C471.752 173.047 471.329 173.136 470.846 173.136ZM477.736 166.455V167.307H474.344V166.455H477.736ZM475.333 164.886H476.339V171.125C476.339 171.409 476.38 171.622 476.462 171.764C476.547 171.903 476.655 171.997 476.786 172.045C476.92 172.091 477.06 172.114 477.208 172.114C477.319 172.114 477.41 172.108 477.481 172.097C477.552 172.082 477.608 172.071 477.651 172.062L477.856 172.966C477.787 172.991 477.692 173.017 477.57 173.043C477.448 173.071 477.293 173.085 477.106 173.085C476.822 173.085 476.543 173.024 476.27 172.902C476 172.78 475.776 172.594 475.597 172.344C475.421 172.094 475.333 171.778 475.333 171.398V164.886Z" fill="#535862"/>
<path d="M508.521 164.273V173H507.498L502.742 166.148H502.657V173H501.6V164.273H502.623L507.396 171.142H507.481V164.273H508.521ZM513.158 173.136C512.567 173.136 512.049 172.996 511.603 172.714C511.16 172.433 510.813 172.04 510.563 171.534C510.316 171.028 510.192 170.437 510.192 169.761C510.192 169.08 510.316 168.484 510.563 167.976C510.813 167.467 511.16 167.072 511.603 166.791C512.049 166.51 512.567 166.369 513.158 166.369C513.749 166.369 514.266 166.51 514.709 166.791C515.155 167.072 515.502 167.467 515.749 167.976C515.999 168.484 516.124 169.08 516.124 169.761C516.124 170.437 515.999 171.028 515.749 171.534C515.502 172.04 515.155 172.433 514.709 172.714C514.266 172.996 513.749 173.136 513.158 173.136ZM513.158 172.233C513.607 172.233 513.976 172.118 514.266 171.888C514.556 171.658 514.77 171.355 514.91 170.98C515.049 170.605 515.118 170.199 515.118 169.761C515.118 169.324 515.049 168.916 514.91 168.538C514.77 168.161 514.556 167.855 514.266 167.622C513.976 167.389 513.607 167.273 513.158 167.273C512.709 167.273 512.34 167.389 512.05 167.622C511.76 167.855 511.546 168.161 511.407 168.538C511.268 168.916 511.198 169.324 511.198 169.761C511.198 170.199 511.268 170.605 511.407 170.98C511.546 171.355 511.76 171.658 512.05 171.888C512.34 172.118 512.709 172.233 513.158 172.233ZM522.777 166.455L520.357 173H519.334L516.913 166.455H518.004L519.811 171.67H519.879L521.686 166.455H522.777Z" fill="#535862"/>
<path d="M549.094 173H546.401V164.273H549.213C550.06 164.273 550.784 164.447 551.386 164.797C551.989 165.143 552.45 165.642 552.771 166.293C553.092 166.94 553.253 167.716 553.253 168.619C553.253 169.528 553.091 170.311 552.767 170.967C552.443 171.621 551.972 172.124 551.352 172.476C550.733 172.825 549.98 173 549.094 173ZM547.457 172.062H549.026C549.747 172.062 550.345 171.923 550.82 171.645C551.294 171.366 551.648 170.97 551.881 170.456C552.114 169.942 552.23 169.33 552.23 168.619C552.23 167.915 552.115 167.308 551.885 166.8C551.655 166.288 551.311 165.896 550.854 165.624C550.396 165.348 549.827 165.21 549.145 165.21H547.457V172.062ZM557.634 173.136C557.003 173.136 556.459 172.997 556.001 172.719C555.547 172.438 555.196 172.045 554.949 171.543C554.705 171.037 554.582 170.449 554.582 169.778C554.582 169.108 554.705 168.517 554.949 168.006C555.196 167.491 555.54 167.091 555.98 166.804C556.423 166.514 556.94 166.369 557.531 166.369C557.872 166.369 558.209 166.426 558.541 166.54C558.874 166.653 559.176 166.838 559.449 167.094C559.722 167.347 559.939 167.682 560.101 168.099C560.263 168.517 560.344 169.031 560.344 169.642V170.068H555.298V169.199H559.321C559.321 168.83 559.247 168.5 559.099 168.21C558.955 167.92 558.747 167.692 558.477 167.524C558.21 167.357 557.895 167.273 557.531 167.273C557.131 167.273 556.784 167.372 556.491 167.571C556.202 167.767 555.979 168.023 555.822 168.338C555.666 168.653 555.588 168.991 555.588 169.352V169.932C555.588 170.426 555.673 170.845 555.844 171.189C556.017 171.53 556.257 171.79 556.564 171.969C556.871 172.145 557.227 172.233 557.634 172.233C557.898 172.233 558.136 172.196 558.349 172.122C558.565 172.045 558.751 171.932 558.908 171.781C559.064 171.628 559.185 171.437 559.27 171.21L560.241 171.483C560.139 171.812 559.967 172.102 559.726 172.352C559.484 172.599 559.186 172.793 558.831 172.932C558.476 173.068 558.077 173.136 557.634 173.136ZM564.533 173.136C563.919 173.136 563.391 172.991 562.947 172.702C562.504 172.412 562.163 172.013 561.925 171.504C561.686 170.996 561.567 170.415 561.567 169.761C561.567 169.097 561.689 168.51 561.933 168.001C562.18 167.49 562.524 167.091 562.964 166.804C563.408 166.514 563.925 166.369 564.516 166.369C564.976 166.369 565.391 166.455 565.76 166.625C566.129 166.795 566.432 167.034 566.668 167.341C566.903 167.648 567.05 168.006 567.107 168.415H566.101C566.024 168.116 565.854 167.852 565.589 167.622C565.328 167.389 564.976 167.273 564.533 167.273C564.141 167.273 563.797 167.375 563.501 167.58C563.209 167.781 562.98 168.067 562.815 168.436C562.653 168.803 562.572 169.233 562.572 169.727C562.572 170.233 562.652 170.673 562.811 171.048C562.973 171.423 563.2 171.714 563.493 171.922C563.788 172.129 564.135 172.233 564.533 172.233C564.794 172.233 565.031 172.188 565.244 172.097C565.457 172.006 565.638 171.875 565.786 171.705C565.933 171.534 566.038 171.33 566.101 171.091H567.107C567.05 171.477 566.909 171.825 566.685 172.135C566.463 172.442 566.169 172.686 565.803 172.868C565.439 173.047 565.016 173.136 564.533 173.136Z" fill="#535862"/>
<path d="M278.461 190.273H280.059L282.837 197.057H282.939L285.718 190.273H287.316V199H286.063V192.685H285.982L283.408 198.987H282.368L279.795 192.68H279.714V199H278.461V190.273ZM291.885 199.132C291.271 199.132 290.736 198.991 290.279 198.71C289.821 198.429 289.466 198.036 289.213 197.53C288.96 197.024 288.834 196.433 288.834 195.757C288.834 195.078 288.96 194.484 289.213 193.976C289.466 193.467 289.821 193.072 290.279 192.791C290.736 192.51 291.271 192.369 291.885 192.369C292.499 192.369 293.034 192.51 293.492 192.791C293.949 193.072 294.304 193.467 294.557 193.976C294.81 194.484 294.936 195.078 294.936 195.757C294.936 196.433 294.81 197.024 294.557 197.53C294.304 198.036 293.949 198.429 293.492 198.71C293.034 198.991 292.499 199.132 291.885 199.132ZM291.889 198.062C292.287 198.062 292.617 197.957 292.878 197.747C293.139 197.537 293.333 197.257 293.458 196.908C293.585 196.558 293.649 196.173 293.649 195.753C293.649 195.335 293.585 194.952 293.458 194.602C293.333 194.25 293.139 193.967 292.878 193.754C292.617 193.541 292.287 193.435 291.889 193.435C291.489 193.435 291.156 193.541 290.892 193.754C290.631 193.967 290.436 194.25 290.308 194.602C290.183 194.952 290.121 195.335 290.121 195.753C290.121 196.173 290.183 196.558 290.308 196.908C290.436 197.257 290.631 197.537 290.892 197.747C291.156 197.957 291.489 198.062 291.889 198.062ZM297.633 195.114V199H296.358V192.455H297.581V193.52H297.662C297.813 193.173 298.049 192.895 298.37 192.685C298.694 192.474 299.101 192.369 299.593 192.369C300.039 192.369 300.43 192.463 300.765 192.651C301.1 192.835 301.36 193.111 301.545 193.477C301.729 193.844 301.822 194.297 301.822 194.837V199H300.547V194.99C300.547 194.516 300.424 194.145 300.177 193.878C299.93 193.608 299.59 193.473 299.158 193.473C298.863 193.473 298.6 193.537 298.37 193.665C298.143 193.793 297.962 193.98 297.829 194.227C297.698 194.472 297.633 194.767 297.633 195.114ZM306.586 192.455V193.477H303.01V192.455H306.586ZM303.969 190.886H305.243V197.078C305.243 197.325 305.28 197.511 305.354 197.636C305.428 197.759 305.523 197.842 305.64 197.888C305.759 197.93 305.888 197.952 306.028 197.952C306.13 197.952 306.219 197.945 306.296 197.93C306.373 197.916 306.432 197.905 306.475 197.896L306.705 198.949C306.631 198.977 306.526 199.006 306.39 199.034C306.253 199.065 306.083 199.082 305.878 199.085C305.543 199.091 305.231 199.031 304.941 198.906C304.651 198.781 304.417 198.588 304.238 198.327C304.059 198.065 303.969 197.737 303.969 197.342V190.886ZM309.41 195.114V199H308.136V190.273H309.393V193.52H309.474C309.627 193.168 309.862 192.888 310.177 192.68C310.492 192.473 310.904 192.369 311.413 192.369C311.862 192.369 312.254 192.462 312.589 192.646C312.927 192.831 313.188 193.107 313.373 193.473C313.561 193.837 313.654 194.291 313.654 194.837V199H312.38V194.99C312.38 194.51 312.257 194.138 312.009 193.874C311.762 193.607 311.419 193.473 310.978 193.473C310.677 193.473 310.407 193.537 310.169 193.665C309.933 193.793 309.747 193.98 309.61 194.227C309.477 194.472 309.41 194.767 309.41 195.114Z" fill="#535862"/>
<g clip-path="url(#clip0_176_49395)">
<mask id="mask0_176_49395" style="mask-type:alpha" maskUnits="userSpaceOnUse" x="48" y="0" width="544" height="152">
<rect width="544" height="152" transform="translate(48)" fill="url(#paint0_linear_176_49395)"/>
</mask>
<g mask="url(#mask0_176_49395)">
<path opacity="0.05" d="M388.012 23.7307C388.029 23.8239 388.049 23.9177 388.07 24.01L392.289 41.8879C392.859 44.3033 394.858 46.1182 397.316 46.4543C399.775 46.7903 402.187 45.5781 403.384 43.4045L407.603 35.7454C407.682 35.6019 407.752 35.4542 407.819 35.3049L409.213 40.426C409.935 43.0776 412.366 44.8997 415.113 44.8489C417.861 44.798 420.223 42.8868 420.846 40.2102L420.918 39.8977L421.776 44.1379C422.143 45.9513 423.327 47.4949 424.983 48.3196C426.639 49.144 428.584 49.1585 430.252 48.3586L431.8 47.6155L433.379 48.4172C434.864 49.1707 436.595 49.2731 438.158 48.7004C439.722 48.1278 440.976 46.9309 441.623 45.3967L443.846 40.1213C446.44 40.4217 448.979 38.9971 450.04 36.5393L450.694 35.0217C451.532 35.3649 452.447 35.5215 453.376 35.4583C454.343 35.3924 455.263 35.0929 456.069 34.6057C457.345 37.0894 460.18 38.3756 462.906 37.6711L465.096 37.1047L467.401 38.1321C469.054 38.8679 470.951 38.8181 472.563 37.9973C474.176 37.1764 475.333 35.6713 475.71 33.9016L476.802 28.7766L476.923 29.0793C477.624 30.8376 479.113 32.1619 480.941 32.6526C482.51 33.0735 484.169 32.8358 485.548 32.0208L486.118 32.7883C487.426 34.5471 489.589 35.4531 491.76 35.1516C493.399 34.9238 494.844 34.0341 495.789 32.7307C496.752 33.448 497.926 33.8774 499.175 33.9182C501.5 33.9941 503.659 32.7193 504.716 30.6467L506.902 26.3567L508.165 27.4182C508.389 27.6061 508.626 27.7775 508.874 27.9309L512.917 30.427C515.719 32.1563 519.391 31.3046 521.146 28.5188L522.038 27.0999C523.949 27.9625 526.21 27.7727 527.969 26.5295L530.128 25.0022L531.441 29.1438C532.116 31.2707 533.915 32.8483 536.111 33.2385C538.308 33.6287 540.54 32.7674 541.905 31.0032L543.448 29.009L546.148 31.095C547.348 32.0214 548.843 32.4495 550.33 32.3215L552.32 45.4993C552.632 47.5619 553.992 49.3147 555.913 50.1282L560.132 51.9143C562.7 53.0017 565.679 52.1765 567.321 49.9221L571.54 44.1292C571.546 44.1206 571.552 44.1114 571.559 44.1028L574.427 40.1194C575.577 41.7651 577.509 42.7648 579.595 42.678C581.427 42.6016 583.07 41.6986 584.127 40.304L586.093 51.3713C586.61 54.2812 589.143 56.3238 592 56.3206V152H48V90.0315C49.1096 91.1282 50.6261 91.7728 52.2441 91.7659C52.4577 91.7649 52.6697 91.7519 52.8789 91.7288L54.7324 103.18C55.189 106.001 57.5727 108.11 60.4287 108.218C63.2845 108.326 65.8207 106.404 66.4893 103.625L70.707 86.093C70.7266 86.0116 70.7446 85.9291 70.7607 85.8469L70.8672 85.301L71.6592 89.0432C72.1643 91.4315 74.066 93.2758 76.4688 93.7073C77.9109 93.9662 79.3603 93.6842 80.5713 92.9719C81.4412 94.762 83.1428 96.0086 85.1191 96.2903C87.1417 96.5785 89.1717 95.8172 90.5068 94.2708L90.8027 93.927C92.2853 95.0395 94.2074 95.4099 96.0088 94.9094C96.8198 94.684 97.5591 94.2922 98.1924 93.7756C98.7305 94.4349 99.4072 94.9804 100.187 95.3645C101.674 96.0976 103.399 96.1825 104.951 95.5989L109.169 94.0129C111.094 93.2893 112.514 91.6298 112.933 89.6165L113.235 88.1565L113.79 91.5823C114.266 94.5237 116.829 96.6705 119.809 96.6233C122.788 96.5759 125.281 94.3488 125.663 91.3938L126.892 81.8977C127.876 84.1019 130.106 85.5238 132.56 85.4456C133.57 85.4133 134.525 85.1279 135.359 84.6477C136.293 86.6669 138.298 88.0426 140.592 88.1243C143.323 88.2214 145.775 86.4602 146.556 83.8411L147.12 81.9446C147.538 82.1026 147.976 82.2176 148.428 82.2795L152.646 82.8577C152.743 82.871 152.841 82.8823 152.939 82.8909L157.157 83.2581C158.995 83.4183 160.805 82.7239 162.064 81.3752L166.283 76.8567C166.928 76.1656 167.401 75.3316 167.663 74.4231L170.105 65.9397C171.198 67.1463 172.759 67.883 174.448 67.9124C175.205 67.9255 175.94 67.795 176.624 67.5432L177.192 69.6721C177.912 72.3705 180.398 74.2155 183.189 74.1223C183.682 74.1059 184.161 74.0289 184.619 73.8997L185.474 80.6272C185.583 81.4915 185.881 82.3218 186.344 83.0598L190.562 89.7854C191.829 91.8064 194.175 92.8841 196.534 92.5305C198.893 92.1768 200.819 90.4591 201.438 88.1555L205.615 72.6262L209.098 62.0061L210.229 61.3088L213.021 61.0745C214.236 60.9723 215.376 60.5035 216.303 59.7502L219.359 71.7473C220.045 74.4405 222.491 76.3104 225.27 76.2659C228.048 76.2212 230.433 74.2738 231.032 71.5598L235.326 52.1067L239.145 38.2815L242.428 33.2473L242.749 32.9573L244.563 43.9788C244.991 46.5759 247.062 48.5912 249.67 48.9485L253.888 49.5266C256.422 49.8739 258.899 48.5754 260.055 46.2932L264.273 37.9661C264.509 37.5018 264.682 37.0083 264.79 36.4993L265.009 35.4641L266 37.9563C266.871 40.1482 268.947 41.6271 271.303 41.7346C273.659 41.8421 275.859 40.5586 276.927 38.4553L281.146 30.1409C281.327 29.7834 281.471 29.4082 281.578 29.0217L283.093 23.5295C283.958 25.2489 285.606 26.4658 287.538 26.7629C289.716 27.0977 291.902 26.2115 293.232 24.4553L295.02 22.095L296.824 23.9329C298.281 25.4158 300.401 26.0398 302.429 25.5813C304.456 25.1227 306.102 23.6472 306.778 21.6819L306.894 21.3469L307.909 25.8245C308.516 28.4997 310.86 30.4223 313.603 30.4944C316.345 30.5664 318.788 28.7692 319.534 26.1292L319.993 24.5042L320.868 26.6262C320.947 26.8171 321.036 27.0041 321.134 27.1858L325.352 35.0139C325.511 35.3096 325.695 35.5918 325.901 35.8567L330.12 41.2678C331.556 43.1104 333.932 43.9518 336.208 43.4241C338.484 42.8962 340.246 41.0954 340.725 38.8088L342.756 29.1028L345.834 45.1331C346.352 47.8325 348.639 49.8351 351.383 49.9924C354.127 50.1497 356.627 48.4216 357.45 45.7991L359.478 39.3391L362.914 40.2053C364.469 40.5975 366.116 40.3511 367.488 39.5208C368.86 38.6904 369.842 37.3448 370.216 35.7854L374.235 19.0002L374.863 17.8977C374.898 17.9112 374.932 17.9269 374.967 17.9397L379.186 19.4895C381.947 20.5042 385.038 19.3664 386.482 16.803L386.661 16.4856L388.012 23.7307Z" fill="#717680"/>
</g>
<path d="M48 76.3744L52.2184 85.7659L56.4368 76.1511L60.6553 102.222L64.8736 84.6888L69.0921 63.2394L73.3104 67.8498L77.5289 87.8018L81.7473 81.1292L85.9657 90.35L90.1842 85.4638L94.4026 89.1284L98.621 76.1117L102.839 89.9822L107.058 88.3961L111.276 68.0833L115.495 64.55L119.713 90.6235L123.931 58.0249L128.15 66.5757L132.368 79.448L136.587 63.1212L140.805 82.1275L145.024 67.968L149.242 76.335L153.46 76.9129L157.679 77.2807L161.897 72.7623L166.116 58.1168L170.334 51.326L174.552 61.9128L178.771 52.3112L182.989 68.1256L187.208 46.65L191.426 79.8716L195.645 86.5967L199.863 70.9102L204.081 58.0511L208.3 55.4504L212.518 55.0958L216.737 49.0537L220.955 53.7035L225.173 70.2666L229.498 50.6715L233.61 35.7845L237.829 29.3172L242.047 25.5081L246.266 17.3775L250.484 43.0038L254.702 43.5818L258.921 35.2542L263.139 15.3679L267.358 25.1272L271.576 35.7402L275.795 27.4258L280.013 12.1367L284.231 9.02371L288.45 20.832L292.668 15.2628L296.887 15.4336L301.105 19.7287L305.323 7.47378L309.542 5.89759L313.76 24.4967L317.979 9.57538L322.197 14.1069L326.416 24.3391L330.634 32.1675L334.852 37.5791L339.071 17.4301L343.289 12.4782L347.508 22.0273L351.726 44.0021L355.944 30.565L360.163 33.3234L364.381 34.3873L368.6 16.7733L372.818 9.36522L377.037 12.3074L381.255 13.8574L385.473 6.37045L389.692 0L393.91 22.6315L398.129 40.5098L402.347 32.8505L406.565 19.3346L410.996 24.1293L415.002 38.8499L419.221 20.7237L423.439 22.1028L427.657 42.948L431.876 40.9252L436.094 43.0662L440.313 33.0574L444.531 34.1607L448.75 24.3883L452.968 29.4715L457.186 22.6939L461.405 31.8621L465.623 30.7719L469.842 32.6502L474.06 12.869L478.279 16.2709L482.497 26.8577L486.715 23.5345L490.934 29.2088L495.152 18.1098L499.371 27.9216L503.589 19.6466L507.807 19.2788L512.026 22.8253L516.069 25.3209L520.287 18.6221L524.505 21.63L528.724 18.6483L532.942 14.0248L537.161 27.3305L541.379 21.8795L545.597 23.088L549.816 26.3454L554.034 16.665L558.253 44.603L562.471 46.3893L566.69 40.5968L570.908 34.7386L575.126 23.4557L579.345 36.6826L583.563 18.2937L587.782 26.5687L592 50.3216" stroke="#014437" stroke-width="2" stroke-linecap="round" stroke-linejoin="round"/>
</g>
<defs>
<linearGradient id="paint0_linear_176_49395" x1="272" y1="0" x2="272" y2="152" gradientUnits="userSpaceOnUse">
<stop/>
<stop offset="1" stop-opacity="0"/>
</linearGradient>
<clipPath id="clip0_176_49395">
<rect width="544" height="152" fill="white" transform="translate(48)"/>
</clipPath>
</defs>
</svg>
