<svg width="22" height="20" viewBox="0 0 22 20" fill="none" xmlns="http://www.w3.org/2000/svg">
<path d="M17.5 4.16667C17.5 5.54738 14.1421 6.66667 10 6.66667C5.85786 6.66667 2.5 5.54738 2.5 4.16667M17.5 4.16667C17.5 2.78596 14.1421 1.66667 10 1.66667C5.85786 1.66667 2.5 2.78596 2.5 4.16667M17.5 4.16667V15.8333C17.5 17.2167 14.1667 18.3333 10 18.3333C5.83333 18.3333 2.5 17.2167 2.5 15.8333V4.16667M17.5 10C17.5 11.3833 14.1667 12.5 10 12.5C5.83333 12.5 2.5 11.3833 2.5 10" stroke="#717680" stroke-width="1.67" stroke-linecap="round" stroke-linejoin="round"/>
</svg>
