<svg width="20" height="21" viewBox="0 0 20 21" fill="none" xmlns="http://www.w3.org/2000/svg">
<path d="M17.5 7.57691L17.5 2.57691M17.5 2.57691H12.5M17.5 2.57691L10 10.0769M8.33333 2.5769H6.5C5.09987 2.5769 4.3998 2.5769 3.86502 2.84939C3.39462 3.08907 3.01217 3.47152 2.77248 3.94193C2.5 4.47671 2.5 5.17677 2.5 6.5769V13.5769C2.5 14.977 2.5 15.6771 2.77248 16.2119C3.01217 16.6823 3.39462 17.0647 3.86502 17.3044C4.3998 17.5769 5.09987 17.5769 6.5 17.5769H13.5C14.9001 17.5769 15.6002 17.5769 16.135 17.3044C16.6054 17.0647 16.9878 16.6823 17.2275 16.2119C17.5 15.6771 17.5 14.977 17.5 13.5769V11.7436" stroke="#414651" stroke-width="1.66667" stroke-linecap="round" stroke-linejoin="round"/>
</svg>
