<svg width="304" height="200" viewBox="0 0 304 200" fill="none" xmlns="http://www.w3.org/2000/svg">
<path d="M200 100C200 155.228 155.228 200 100 200C44.7715 200 0 155.228 0 100C0 44.7715 44.7715 0 100 0C155.228 0 200 44.7715 200 100ZM50 100C50 127.614 72.3858 150 100 150C127.614 150 150 127.614 150 100C150 72.3858 127.614 50 100 50C72.3858 50 50 72.3858 50 100Z" fill="#FDA29B"/>
<path d="M100 0C121.118 2.51829e-07 141.694 6.6855 158.779 19.0983C175.863 31.5111 188.58 49.014 195.106 69.0983L147.553 84.5492C144.29 74.507 137.932 65.7556 129.389 59.5492C120.847 53.3427 110.559 50 100 50L100 0Z" fill="#FEC84B"/>
<path d="M195.106 69.0983C200.805 86.6379 201.542 105.412 197.237 123.345C192.932 141.277 183.751 157.67 170.711 170.711C157.67 183.751 141.277 192.932 123.345 197.237C105.412 201.542 86.638 200.805 69.0983 195.106L84.5492 147.553C93.319 150.402 102.706 150.771 111.672 148.618C120.639 146.466 128.835 141.876 135.355 135.355C141.876 128.835 146.466 120.639 148.618 111.672C150.771 102.706 150.402 93.319 147.553 84.5492L195.106 69.0983Z" fill="#278B72"/>
<path d="M69.0983 195.106C49.014 188.58 31.5111 175.863 19.0983 158.779L59.5491 129.389C65.7556 137.932 74.507 144.29 84.5491 147.553L69.0983 195.106Z" fill="#7CD4FD"/>
<circle cx="220" cy="10" r="4" fill="#7CD4FD"/>
<path d="M233.233 15V4.81818H239.338V5.91193H234.466V9.35227H238.881V10.446H234.466V15H233.233ZM242.464 4.81818V15H241.291V4.81818H242.464ZM247.715 15.1591C247.026 15.1591 246.421 14.995 245.901 14.6669C245.384 14.3388 244.979 13.8797 244.688 13.2898C244.399 12.6998 244.255 12.0104 244.255 11.2216C244.255 10.4261 244.399 9.73177 244.688 9.13849C244.979 8.54522 245.384 8.08452 245.901 7.75639C246.421 7.42827 247.026 7.2642 247.715 7.2642C248.405 7.2642 249.008 7.42827 249.525 7.75639C250.045 8.08452 250.45 8.54522 250.738 9.13849C251.03 9.73177 251.175 10.4261 251.175 11.2216C251.175 12.0104 251.03 12.6998 250.738 13.2898C250.45 13.8797 250.045 14.3388 249.525 14.6669C249.008 14.995 248.405 15.1591 247.715 15.1591ZM247.715 14.1051C248.239 14.1051 248.67 13.9709 249.008 13.7024C249.346 13.4339 249.596 13.081 249.759 12.6435C249.921 12.206 250.002 11.732 250.002 11.2216C250.002 10.7112 249.921 10.2356 249.759 9.79474C249.596 9.35393 249.346 8.99763 249.008 8.72585C248.67 8.45407 248.239 8.31818 247.715 8.31818C247.192 8.31818 246.761 8.45407 246.423 8.72585C246.085 8.99763 245.834 9.35393 245.672 9.79474C245.509 10.2356 245.428 10.7112 245.428 11.2216C245.428 11.732 245.509 12.206 245.672 12.6435C245.834 13.081 246.085 13.4339 246.423 13.7024C246.761 13.9709 247.192 14.1051 247.715 14.1051ZM252.966 15V7.36364H254.1V8.51705H254.18C254.319 8.1392 254.571 7.83262 254.935 7.5973C255.3 7.36198 255.711 7.24432 256.168 7.24432C256.254 7.24432 256.362 7.24597 256.491 7.24929C256.621 7.2526 256.718 7.25758 256.785 7.2642V8.45739C256.745 8.44744 256.654 8.43253 256.511 8.41264C256.372 8.38944 256.224 8.37784 256.069 8.37784C255.698 8.37784 255.366 8.45573 255.074 8.61151C254.786 8.76397 254.557 8.97609 254.388 9.24787C254.223 9.51634 254.14 9.82292 254.14 10.1676V15H252.966ZM260.423 15.179C259.939 15.179 259.5 15.0878 259.105 14.9055C258.711 14.7199 258.397 14.4531 258.165 14.1051C257.933 13.7538 257.817 13.3295 257.817 12.8324C257.817 12.3949 257.904 12.0402 258.076 11.7685C258.248 11.4934 258.479 11.2779 258.767 11.1222C259.055 10.9664 259.374 10.8504 259.722 10.7741C260.073 10.6946 260.426 10.6316 260.781 10.5852C261.245 10.5256 261.621 10.4808 261.909 10.451C262.201 10.4179 262.413 10.3632 262.545 10.2869C262.681 10.2107 262.749 10.0781 262.749 9.8892V9.84943C262.749 9.3589 262.615 8.97775 262.347 8.70597C262.081 8.43419 261.679 8.2983 261.138 8.2983C260.578 8.2983 260.139 8.42093 259.821 8.66619C259.503 8.91146 259.279 9.1733 259.15 9.4517L258.036 9.05398C258.235 8.58996 258.5 8.22869 258.832 7.97017C259.166 7.70833 259.531 7.52604 259.925 7.4233C260.323 7.31723 260.714 7.2642 261.099 7.2642C261.344 7.2642 261.626 7.29403 261.944 7.35369C262.265 7.41004 262.575 7.5277 262.874 7.70668C263.175 7.88565 263.425 8.15578 263.624 8.51705C263.823 8.87831 263.923 9.36222 263.923 9.96875V15H262.749V13.9659H262.69C262.61 14.1316 262.478 14.3089 262.292 14.4979C262.106 14.6868 261.859 14.8475 261.551 14.9801C261.243 15.1127 260.867 15.179 260.423 15.179ZM260.602 14.125C261.066 14.125 261.457 14.0339 261.775 13.8516C262.096 13.6693 262.338 13.4339 262.501 13.1456C262.666 12.8572 262.749 12.554 262.749 12.2358V11.1619C262.7 11.2216 262.59 11.2763 262.421 11.326C262.255 11.3724 262.063 11.4138 261.844 11.4503C261.629 11.4834 261.419 11.5133 261.213 11.5398C261.011 11.563 260.847 11.5829 260.721 11.5994C260.416 11.6392 260.131 11.7038 259.866 11.7933C259.604 11.8795 259.392 12.0104 259.229 12.1861C259.07 12.3584 258.991 12.5937 258.991 12.892C258.991 13.2997 259.142 13.608 259.443 13.8168C259.748 14.0223 260.134 14.125 260.602 14.125ZM269.649 13.1108V11.6442L273.969 4.81818H275.192V6.90625H274.446L271.538 11.5149V11.5945H277.568V13.1108H269.649ZM274.506 15V12.6634L274.526 12.0071V4.81818H276.266V15H274.506ZM278.973 13.1108V11.6442L283.293 4.81818H284.516V6.90625H283.77L280.862 11.5149V11.5945H286.893V13.1108H278.973ZM283.83 15V12.6634L283.85 12.0071V4.81818H285.59V15H283.83ZM292.021 15.1392C291.358 15.1392 290.765 15.0149 290.241 14.7663C289.717 14.5144 289.301 14.1697 288.993 13.7322C288.688 13.2947 288.526 12.7943 288.506 12.2308H290.296C290.329 12.6484 290.509 12.9898 290.838 13.255C291.166 13.5168 291.56 13.6477 292.021 13.6477C292.382 13.6477 292.704 13.5649 292.985 13.3991C293.267 13.2334 293.489 13.0031 293.651 12.7081C293.814 12.4131 293.893 12.0767 293.89 11.6989C293.893 11.3144 293.812 10.973 293.646 10.6747C293.481 10.3764 293.254 10.1428 292.965 9.97372C292.677 9.80137 292.346 9.7152 291.971 9.7152C291.666 9.71188 291.366 9.76823 291.071 9.88423C290.776 10.0002 290.543 10.1527 290.37 10.3416L288.705 10.0682L289.237 4.81818H295.143V6.35938H290.763L290.47 9.05895H290.529C290.718 8.83688 290.985 8.65294 291.33 8.5071C291.674 8.35795 292.052 8.28338 292.463 8.28338C293.08 8.28338 293.63 8.42921 294.114 8.72088C294.598 9.00923 294.979 9.40696 295.257 9.91406C295.536 10.4212 295.675 11.0012 295.675 11.6541C295.675 12.3269 295.519 12.9268 295.208 13.4538C294.899 13.9775 294.47 14.3902 293.92 14.6918C293.373 14.9901 292.74 15.1392 292.021 15.1392Z" fill="#535862"/>
<circle cx="220" cy="34" r="4" fill="#278B72"/>
<path d="M233.233 28.8182H234.705L238.165 37.2699H238.284L241.744 28.8182H243.216V39H242.062V31.2642H241.963L238.781 39H237.668L234.486 31.2642H234.386V39H233.233V28.8182ZM247.776 39.179C247.292 39.179 246.853 39.0878 246.459 38.9055C246.064 38.7199 245.751 38.4531 245.519 38.1051C245.287 37.7538 245.171 37.3295 245.171 36.8324C245.171 36.3949 245.257 36.0402 245.43 35.7685C245.602 35.4934 245.832 35.2779 246.121 35.1222C246.409 34.9664 246.727 34.8504 247.075 34.7741C247.426 34.6946 247.779 34.6316 248.134 34.5852C248.598 34.5256 248.974 34.4808 249.263 34.451C249.554 34.4179 249.766 34.3632 249.899 34.2869C250.035 34.2107 250.103 34.0781 250.103 33.8892V33.8494C250.103 33.3589 249.969 32.9777 249.7 32.706C249.435 32.4342 249.032 32.2983 248.492 32.2983C247.932 32.2983 247.493 32.4209 247.175 32.6662C246.856 32.9115 246.633 33.1733 246.503 33.4517L245.39 33.054C245.589 32.59 245.854 32.2287 246.185 31.9702C246.52 31.7083 246.885 31.526 247.279 31.4233C247.677 31.3172 248.068 31.2642 248.452 31.2642C248.698 31.2642 248.979 31.294 249.297 31.3537C249.619 31.41 249.929 31.5277 250.227 31.7067C250.529 31.8857 250.779 32.1558 250.978 32.517C251.177 32.8783 251.276 33.3622 251.276 33.9688V39H250.103V37.9659H250.043C249.964 38.1316 249.831 38.3089 249.645 38.4979C249.46 38.6868 249.213 38.8475 248.905 38.9801C248.596 39.1127 248.22 39.179 247.776 39.179ZM247.955 38.125C248.419 38.125 248.81 38.0339 249.128 37.8516C249.45 37.6693 249.692 37.4339 249.854 37.1456C250.02 36.8572 250.103 36.554 250.103 36.2358V35.1619C250.053 35.2216 249.944 35.2763 249.775 35.326C249.609 35.3724 249.417 35.4138 249.198 35.4503C248.983 35.4834 248.772 35.5133 248.567 35.5398C248.364 35.563 248.2 35.5829 248.074 35.5994C247.769 35.6392 247.484 35.7038 247.219 35.7933C246.957 35.8795 246.745 36.0104 246.583 36.1861C246.424 36.3584 246.344 36.5937 246.344 36.892C246.344 37.2997 246.495 37.608 246.797 37.8168C247.102 38.0223 247.488 38.125 247.955 38.125ZM253.418 39V31.3636H254.551V32.517H254.631C254.77 32.1392 255.022 31.8326 255.386 31.5973C255.751 31.362 256.162 31.2443 256.619 31.2443C256.705 31.2443 256.813 31.246 256.942 31.2493C257.072 31.2526 257.17 31.2576 257.236 31.2642V32.4574C257.196 32.4474 257.105 32.4325 256.962 32.4126C256.823 32.3894 256.676 32.3778 256.52 32.3778C256.149 32.3778 255.817 32.4557 255.526 32.6115C255.237 32.764 255.009 32.9761 254.839 33.2479C254.674 33.5163 254.591 33.8229 254.591 34.1676V39H253.418ZM258.627 39V31.3636H259.8V39H258.627ZM259.223 30.0909C258.994 30.0909 258.797 30.013 258.632 29.8572C258.469 29.7015 258.388 29.5142 258.388 29.2955C258.388 29.0767 258.469 28.8894 258.632 28.7337C258.797 28.5779 258.994 28.5 259.223 28.5C259.452 28.5 259.647 28.5779 259.81 28.7337C259.976 28.8894 260.058 29.0767 260.058 29.2955C260.058 29.5142 259.976 29.7015 259.81 29.8572C259.647 30.013 259.452 30.0909 259.223 30.0909ZM263.122 34.4062V39H261.949V31.3636H263.082V32.5568H263.182C263.361 32.169 263.633 31.8575 263.997 31.6222C264.362 31.3835 264.832 31.2642 265.409 31.2642C265.926 31.2642 266.379 31.3703 266.766 31.5824C267.154 31.7912 267.456 32.1094 267.671 32.5369C267.887 32.9612 267.994 33.4981 267.994 34.1477V39H266.821V34.2273C266.821 33.6274 266.665 33.16 266.354 32.8253C266.042 32.4872 265.615 32.3182 265.071 32.3182C264.696 32.3182 264.362 32.3994 264.067 32.5618C263.775 32.7242 263.545 32.9612 263.376 33.2727C263.207 33.5843 263.122 33.9621 263.122 34.4062ZM273.34 39.1591C272.604 39.1591 271.97 38.9967 271.436 38.6719C270.906 38.3438 270.496 37.8864 270.208 37.2997C269.923 36.7098 269.78 36.0237 269.78 35.2415C269.78 34.4593 269.923 33.7699 270.208 33.1733C270.496 32.5734 270.897 32.1061 271.411 31.7713C271.928 31.4332 272.531 31.2642 273.221 31.2642C273.618 31.2642 274.011 31.3305 274.399 31.4631C274.787 31.5956 275.14 31.8111 275.458 32.1094C275.776 32.4044 276.03 32.7955 276.219 33.2827C276.407 33.7699 276.502 34.3698 276.502 35.0824V35.5795H270.616V34.5653H275.309C275.309 34.1345 275.223 33.75 275.05 33.4119C274.881 33.0739 274.639 32.8071 274.324 32.6115C274.013 32.416 273.645 32.3182 273.221 32.3182C272.753 32.3182 272.349 32.4342 272.008 32.6662C271.67 32.8949 271.409 33.1932 271.227 33.5611C271.045 33.929 270.954 34.3234 270.954 34.7443V35.4205C270.954 35.9972 271.053 36.486 271.252 36.8871C271.454 37.2848 271.734 37.5881 272.092 37.7969C272.45 38.0024 272.866 38.1051 273.34 38.1051C273.648 38.1051 273.927 38.062 274.175 37.9759C274.427 37.8864 274.644 37.7538 274.827 37.5781C275.009 37.3991 275.15 37.1771 275.249 36.9119L276.383 37.2301C276.263 37.6146 276.063 37.9527 275.781 38.2443C275.499 38.5327 275.151 38.758 274.737 38.9205C274.323 39.0795 273.857 39.1591 273.34 39.1591ZM285.675 39.1392C284.935 39.1392 284.279 39.0149 283.706 38.7663C283.136 38.5178 282.688 38.178 282.363 37.7472C282.042 37.313 281.883 36.8208 281.886 36.2706C281.883 35.843 281.976 35.4503 282.165 35.0923C282.354 34.7344 282.609 34.4361 282.93 34.1974C283.255 33.9555 283.616 33.8014 284.014 33.7351V33.6655C283.49 33.5495 283.066 33.2827 282.741 32.8651C282.42 32.4441 282.261 31.9586 282.264 31.4084C282.261 30.8847 282.407 30.4174 282.702 30.0064C282.997 29.5954 283.401 29.2723 283.915 29.0369C284.428 28.7983 285.015 28.679 285.675 28.679C286.327 28.679 286.909 28.7983 287.42 29.0369C287.933 29.2723 288.338 29.5954 288.633 30.0064C288.931 30.4174 289.08 30.8847 289.08 31.4084C289.08 31.9586 288.916 32.4441 288.588 32.8651C288.263 33.2827 287.844 33.5495 287.33 33.6655V33.7351C287.728 33.8014 288.086 33.9555 288.404 34.1974C288.725 34.4361 288.981 34.7344 289.17 35.0923C289.362 35.4503 289.458 35.843 289.458 36.2706C289.458 36.8208 289.296 37.313 288.971 37.7472C288.646 38.178 288.198 38.5178 287.628 38.7663C287.062 39.0149 286.41 39.1392 285.675 39.1392ZM285.675 37.7173C286.056 37.7173 286.387 37.6527 286.669 37.5234C286.951 37.3909 287.169 37.2053 287.325 36.9666C287.481 36.728 287.56 36.4529 287.564 36.1413C287.56 35.8165 287.476 35.5298 287.31 35.2812C287.148 35.0294 286.924 34.8321 286.639 34.6896C286.357 34.5471 286.036 34.4759 285.675 34.4759C285.31 34.4759 284.985 34.5471 284.7 34.6896C284.415 34.8321 284.19 35.0294 284.024 35.2812C283.862 35.5298 283.782 35.8165 283.785 36.1413C283.782 36.4529 283.858 36.728 284.014 36.9666C284.17 37.2019 284.389 37.3859 284.67 37.5185C284.955 37.651 285.29 37.7173 285.675 37.7173ZM285.675 33.0788C285.986 33.0788 286.261 33.0159 286.5 32.8899C286.742 32.764 286.932 32.5883 287.072 32.3629C287.211 32.1375 287.282 31.8774 287.285 31.5824C287.282 31.2907 287.212 31.0355 287.077 30.8168C286.941 30.5947 286.752 30.424 286.51 30.3047C286.268 30.1821 285.989 30.1207 285.675 30.1207C285.353 30.1207 285.07 30.1821 284.824 30.3047C284.582 30.424 284.394 30.5947 284.258 30.8168C284.125 31.0355 284.06 31.2907 284.064 31.5824C284.06 31.8774 284.127 32.1375 284.263 32.3629C284.402 32.585 284.592 32.7607 284.834 32.8899C285.08 33.0159 285.36 33.0788 285.675 33.0788ZM291.465 39L295.795 30.429V30.3594H290.769V28.8182H297.705V30.3942L293.379 39H291.465Z" fill="#535862"/>
<circle cx="220" cy="58" r="4" fill="#FEC84B"/>
<path d="M233.233 63V52.8182H239.338V53.9119H234.466V57.3523H238.881V58.446H234.466V63H233.233ZM243.538 63.179C243.054 63.179 242.615 63.0878 242.22 62.9055C241.826 62.7199 241.513 62.4531 241.281 62.1051C241.049 61.7538 240.933 61.3295 240.933 60.8324C240.933 60.3949 241.019 60.0402 241.191 59.7685C241.364 59.4934 241.594 59.2779 241.882 59.1222C242.171 58.9664 242.489 58.8504 242.837 58.7741C243.188 58.6946 243.541 58.6316 243.896 58.5852C244.36 58.5256 244.736 58.4808 245.024 58.451C245.316 58.4179 245.528 58.3632 245.661 58.2869C245.797 58.2107 245.865 58.0781 245.865 57.8892V57.8494C245.865 57.3589 245.73 56.9777 245.462 56.706C245.197 56.4342 244.794 56.2983 244.254 56.2983C243.694 56.2983 243.254 56.4209 242.936 56.6662C242.618 56.9115 242.394 57.1733 242.265 57.4517L241.151 57.054C241.35 56.59 241.615 56.2287 241.947 55.9702C242.282 55.7083 242.646 55.526 243.041 55.4233C243.438 55.3172 243.829 55.2642 244.214 55.2642C244.459 55.2642 244.741 55.294 245.059 55.3537C245.381 55.41 245.691 55.5277 245.989 55.7067C246.29 55.8857 246.541 56.1558 246.74 56.517C246.938 56.8783 247.038 57.3622 247.038 57.9688V63H245.865V61.9659H245.805C245.725 62.1316 245.593 62.3089 245.407 62.4979C245.222 62.6868 244.975 62.8475 244.666 62.9801C244.358 63.1127 243.982 63.179 243.538 63.179ZM243.717 62.125C244.181 62.125 244.572 62.0339 244.89 61.8516C245.212 61.6693 245.454 61.4339 245.616 61.1456C245.782 60.8572 245.865 60.554 245.865 60.2358V59.1619C245.815 59.2216 245.705 59.2763 245.536 59.326C245.371 59.3724 245.178 59.4138 244.96 59.4503C244.744 59.4834 244.534 59.5133 244.328 59.5398C244.126 59.563 243.962 59.5829 243.836 59.5994C243.531 59.6392 243.246 59.7038 242.981 59.7933C242.719 59.8795 242.507 60.0104 242.345 60.1861C242.186 60.3584 242.106 60.5937 242.106 60.892C242.106 61.2997 242.257 61.608 242.558 61.8168C242.863 62.0223 243.249 62.125 243.717 62.125ZM253.992 59.8778V55.3636H255.165V63H253.992V61.7074H253.912C253.733 62.0952 253.455 62.425 253.077 62.6967C252.699 62.9652 252.222 63.0994 251.645 63.0994C251.168 63.0994 250.744 62.995 250.373 62.7862C250.001 62.5741 249.71 62.2559 249.498 61.8317C249.285 61.4041 249.179 60.8655 249.179 60.2159V55.3636H250.353V60.1364C250.353 60.6932 250.508 61.1373 250.82 61.4688C251.135 61.8002 251.536 61.9659 252.023 61.9659C252.315 61.9659 252.611 61.8913 252.913 61.7422C253.218 61.593 253.473 61.3643 253.679 61.0561C253.887 60.7479 253.992 60.3551 253.992 59.8778ZM258.487 58.4062V63H257.314V55.3636H258.448V56.5568H258.547C258.726 56.169 258.998 55.8575 259.362 55.6222C259.727 55.3835 260.198 55.2642 260.774 55.2642C261.291 55.2642 261.744 55.3703 262.132 55.5824C262.519 55.7912 262.821 56.1094 263.036 56.5369C263.252 56.9612 263.36 57.4981 263.36 58.1477V63H262.186V58.2273C262.186 57.6274 262.03 57.16 261.719 56.8253C261.407 56.4872 260.98 56.3182 260.436 56.3182C260.062 56.3182 259.727 56.3994 259.432 56.5618C259.14 56.7242 258.91 56.9612 258.741 57.2727C258.572 57.5843 258.487 57.9621 258.487 58.4062ZM267.751 63.179C267.267 63.179 266.828 63.0878 266.433 62.9055C266.039 62.7199 265.726 62.4531 265.494 62.1051C265.262 61.7538 265.146 61.3295 265.146 60.8324C265.146 60.3949 265.232 60.0402 265.404 59.7685C265.576 59.4934 265.807 59.2779 266.095 59.1222C266.384 58.9664 266.702 58.8504 267.05 58.7741C267.401 58.6946 267.754 58.6316 268.109 58.5852C268.573 58.5256 268.949 58.4808 269.237 58.451C269.529 58.4179 269.741 58.3632 269.874 58.2869C270.009 58.2107 270.077 58.0781 270.077 57.8892V57.8494C270.077 57.3589 269.943 56.9777 269.675 56.706C269.41 56.4342 269.007 56.2983 268.467 56.2983C267.906 56.2983 267.467 56.4209 267.149 56.6662C266.831 56.9115 266.607 57.1733 266.478 57.4517L265.364 57.054C265.563 56.59 265.828 56.2287 266.16 55.9702C266.495 55.7083 266.859 55.526 267.254 55.4233C267.651 55.3172 268.042 55.2642 268.427 55.2642C268.672 55.2642 268.954 55.294 269.272 55.3537C269.594 55.41 269.903 55.5277 270.202 55.7067C270.503 55.8857 270.754 56.1558 270.952 56.517C271.151 56.8783 271.251 57.3622 271.251 57.9688V63H270.077V61.9659H270.018C269.938 62.1316 269.806 62.3089 269.62 62.4979C269.434 62.6868 269.188 62.8475 268.879 62.9801C268.571 63.1127 268.195 63.179 267.751 63.179ZM267.93 62.125C268.394 62.125 268.785 62.0339 269.103 61.8516C269.424 61.6693 269.666 61.4339 269.829 61.1456C269.995 60.8572 270.077 60.554 270.077 60.2358V59.1619C270.028 59.2216 269.918 59.2763 269.749 59.326C269.584 59.3724 269.391 59.4138 269.173 59.4503C268.957 59.4834 268.747 59.5133 268.541 59.5398C268.339 59.563 268.175 59.5829 268.049 59.5994C267.744 59.6392 267.459 59.7038 267.194 59.7933C266.932 59.8795 266.72 60.0104 266.558 60.1861C266.398 60.3584 266.319 60.5937 266.319 60.892C266.319 61.2997 266.47 61.608 266.771 61.8168C267.076 62.0223 267.462 62.125 267.93 62.125ZM277.161 63V61.6676L280.695 58.2024C281.034 57.861 281.315 57.5578 281.541 57.2926C281.766 57.0275 281.935 56.7706 282.048 56.522C282.16 56.2734 282.217 56.0083 282.217 55.7266C282.217 55.4051 282.144 55.13 281.998 54.9013C281.852 54.6693 281.652 54.4903 281.396 54.3643C281.141 54.2384 280.851 54.1754 280.526 54.1754C280.192 54.1754 279.898 54.245 279.646 54.3842C279.395 54.5201 279.199 54.714 279.06 54.9659C278.924 55.2178 278.856 55.5178 278.856 55.8658H277.101C277.101 55.2195 277.249 54.6577 277.544 54.1804C277.838 53.7031 278.244 53.3336 278.762 53.0717C279.282 52.8099 279.878 52.679 280.551 52.679C281.234 52.679 281.834 52.8066 282.351 53.0618C282.868 53.317 283.269 53.6667 283.554 54.1108C283.843 54.5549 283.987 55.062 283.987 55.6321C283.987 56.0133 283.914 56.3878 283.768 56.7557C283.622 57.1236 283.365 57.5312 282.997 57.9787C282.633 58.4261 282.121 58.968 281.461 59.6044L279.706 61.3892V61.4588H284.141V63H277.161ZM289.391 52.679C289.878 52.6823 290.352 52.7685 290.813 52.9375C291.277 53.1032 291.694 53.375 292.066 53.7528C292.437 54.1274 292.732 54.6295 292.95 55.2592C293.169 55.889 293.279 56.6679 293.279 57.5959C293.282 58.4709 293.189 59.2531 293 59.9425C292.815 60.6286 292.548 61.2086 292.2 61.6825C291.852 62.1565 291.432 62.5178 290.942 62.7663C290.451 63.0149 289.9 63.1392 289.286 63.1392C288.643 63.1392 288.073 63.0133 287.576 62.7614C287.082 62.5095 286.683 62.1648 286.378 61.7273C286.073 61.2898 285.886 60.7893 285.816 60.2259H287.631C287.724 60.6302 287.913 60.9517 288.198 61.1903C288.486 61.4257 288.849 61.5433 289.286 61.5433C289.992 61.5433 290.536 61.2367 290.917 60.6236C291.298 60.0104 291.489 59.1586 291.489 58.0682H291.419C291.257 58.3598 291.046 58.6117 290.788 58.8239C290.529 59.0327 290.236 59.1934 289.908 59.3061C289.583 59.4188 289.238 59.4751 288.874 59.4751C288.277 59.4751 287.74 59.3326 287.263 59.0476C286.789 58.7625 286.413 58.3714 286.134 57.8743C285.859 57.3771 285.72 56.8087 285.717 56.169C285.717 55.5062 285.869 54.9112 286.174 54.3842C286.482 53.8539 286.912 53.4363 287.462 53.1314C288.012 52.8232 288.655 52.6723 289.391 52.679ZM289.396 54.1705C289.038 54.1705 288.715 54.2583 288.426 54.4339C288.141 54.6063 287.916 54.8416 287.75 55.1399C287.588 55.4349 287.507 55.7647 287.507 56.1293C287.51 56.4905 287.591 56.8187 287.75 57.1136C287.913 57.4086 288.133 57.6423 288.411 57.8146C288.693 57.987 289.015 58.0732 289.376 58.0732C289.644 58.0732 289.895 58.0218 290.127 57.919C290.359 57.8163 290.561 57.6738 290.733 57.4915C290.909 57.3059 291.045 57.0954 291.141 56.8601C291.24 56.6248 291.288 56.3762 291.285 56.1143C291.285 55.7663 291.202 55.4448 291.036 55.1499C290.874 54.8549 290.65 54.6179 290.365 54.4389C290.084 54.2599 289.76 54.1705 289.396 54.1705ZM298.553 63.1392C297.814 63.1392 297.158 63.0149 296.585 62.7663C296.015 62.5178 295.567 62.178 295.242 61.7472C294.921 61.313 294.762 60.8208 294.765 60.2706C294.762 59.843 294.855 59.4503 295.044 59.0923C295.232 58.7344 295.488 58.4361 295.809 58.1974C296.134 57.9555 296.495 57.8014 296.893 57.7351V57.6655C296.369 57.5495 295.945 57.2827 295.62 56.8651C295.299 56.4441 295.14 55.9586 295.143 55.4084C295.14 54.8847 295.285 54.4174 295.58 54.0064C295.875 53.5954 296.28 53.2723 296.794 53.0369C297.307 52.7983 297.894 52.679 298.553 52.679C299.206 52.679 299.788 52.7983 300.298 53.0369C300.812 53.2723 301.217 53.5954 301.512 54.0064C301.81 54.4174 301.959 54.8847 301.959 55.4084C301.959 55.9586 301.795 56.4441 301.467 56.8651C301.142 57.2827 300.723 57.5495 300.209 57.6655V57.7351C300.607 57.8014 300.965 57.9555 301.283 58.1974C301.604 58.4361 301.86 58.7344 302.048 59.0923C302.241 59.4503 302.337 59.843 302.337 60.2706C302.337 60.8208 302.174 61.313 301.85 61.7472C301.525 62.178 301.077 62.5178 300.507 62.7663C299.941 63.0149 299.289 63.1392 298.553 63.1392ZM298.553 61.7173C298.935 61.7173 299.266 61.6527 299.548 61.5234C299.829 61.3909 300.048 61.2053 300.204 60.9666C300.36 60.728 300.439 60.4529 300.443 60.1413C300.439 59.8165 300.355 59.5298 300.189 59.2812C300.027 59.0294 299.803 58.8321 299.518 58.6896C299.236 58.5471 298.915 58.4759 298.553 58.4759C298.189 58.4759 297.864 58.5471 297.579 58.6896C297.294 58.8321 297.069 59.0294 296.903 59.2812C296.74 59.5298 296.661 59.8165 296.664 60.1413C296.661 60.4529 296.737 60.728 296.893 60.9666C297.049 61.2019 297.267 61.3859 297.549 61.5185C297.834 61.651 298.169 61.7173 298.553 61.7173ZM298.553 57.0788C298.865 57.0788 299.14 57.0159 299.379 56.8899C299.621 56.764 299.811 56.5883 299.95 56.3629C300.09 56.1375 300.161 55.8774 300.164 55.5824C300.161 55.2907 300.091 55.0355 299.955 54.8168C299.82 54.5947 299.631 54.424 299.389 54.3047C299.147 54.1821 298.868 54.1207 298.553 54.1207C298.232 54.1207 297.949 54.1821 297.703 54.3047C297.461 54.424 297.272 54.5947 297.137 54.8168C297.004 55.0355 296.939 55.2907 296.943 55.5824C296.939 55.8774 297.006 56.1375 297.142 56.3629C297.281 56.585 297.471 56.7607 297.713 56.8899C297.959 57.0159 298.239 57.0788 298.553 57.0788Z" fill="#535862"/>
<circle cx="220" cy="82" r="4" fill="#FDA29B"/>
<path d="M233.233 87V76.8182H239.338V77.9119H234.466V81.3523H238.881V82.446H234.466V87H233.233ZM245.625 83.8778V79.3636H246.798V87H245.625V85.7074H245.545C245.366 86.0952 245.088 86.425 244.71 86.6967C244.332 86.9652 243.855 87.0994 243.278 87.0994C242.801 87.0994 242.377 86.995 242.005 86.7862C241.634 86.5741 241.342 86.2559 241.13 85.8317C240.918 85.4041 240.812 84.8655 240.812 84.2159V79.3636H241.985V84.1364C241.985 84.6932 242.141 85.1373 242.453 85.4688C242.768 85.8002 243.169 85.9659 243.656 85.9659C243.948 85.9659 244.244 85.8913 244.546 85.7422C244.851 85.593 245.106 85.3643 245.311 85.0561C245.52 84.7479 245.625 84.3551 245.625 83.8778ZM250.12 82.4062V87H248.947V79.3636H250.08V80.5568H250.18C250.359 80.169 250.631 79.8575 250.995 79.6222C251.36 79.3835 251.83 79.2642 252.407 79.2642C252.924 79.2642 253.377 79.3703 253.764 79.5824C254.152 79.7912 254.454 80.1094 254.669 80.5369C254.885 80.9612 254.992 81.4981 254.992 82.1477V87H253.819V82.2273C253.819 81.6274 253.663 81.16 253.352 80.8253C253.04 80.4872 252.613 80.3182 252.069 80.3182C251.695 80.3182 251.36 80.3994 251.065 80.5618C250.773 80.7242 250.543 80.9612 250.374 81.2727C250.205 81.5843 250.12 81.9621 250.12 82.4062ZM260.219 90.0227C259.652 90.0227 259.165 89.9498 258.757 89.804C258.349 89.6615 258.01 89.4725 257.738 89.2372C257.469 89.0052 257.256 88.7566 257.097 88.4915L258.031 87.8352C258.137 87.9744 258.272 88.1335 258.434 88.3125C258.596 88.4948 258.818 88.6522 259.1 88.7848C259.385 88.9207 259.758 88.9886 260.219 88.9886C260.835 88.9886 261.344 88.8395 261.745 88.5412C262.146 88.2429 262.347 87.7756 262.347 87.1392V85.5881H262.247C262.161 85.7273 262.038 85.8996 261.879 86.1051C261.723 86.3073 261.498 86.4879 261.203 86.647C260.911 86.8028 260.517 86.8807 260.02 86.8807C259.403 86.8807 258.85 86.7348 258.359 86.4432C257.872 86.1515 257.486 85.7273 257.201 85.1705C256.919 84.6136 256.778 83.9375 256.778 83.142C256.778 82.3598 256.916 81.6787 257.191 81.0987C257.466 80.5154 257.849 80.0646 258.339 79.7464C258.83 79.425 259.397 79.2642 260.04 79.2642C260.537 79.2642 260.931 79.3471 261.223 79.5128C261.518 79.6752 261.743 79.8608 261.899 80.0696C262.058 80.2751 262.181 80.4441 262.267 80.5767H262.386V79.3636H263.52V87.2188C263.52 87.875 263.371 88.4086 263.072 88.8196C262.777 89.2339 262.38 89.5372 261.879 89.7294C261.382 89.925 260.829 90.0227 260.219 90.0227ZM260.179 85.8267C260.65 85.8267 261.047 85.719 261.372 85.5036C261.697 85.2881 261.944 84.9782 262.113 84.5739C262.282 84.1695 262.366 83.6856 262.366 83.1222C262.366 82.572 262.284 82.0864 262.118 81.6655C261.952 81.2446 261.707 80.9148 261.382 80.6761C261.057 80.4375 260.656 80.3182 260.179 80.3182C259.682 80.3182 259.268 80.4441 258.936 80.696C258.608 80.9479 258.361 81.286 258.195 81.7102C258.033 82.1345 257.952 82.6051 257.952 83.1222C257.952 83.6525 258.035 84.1214 258.2 84.5291C258.369 84.9335 258.618 85.2517 258.946 85.4837C259.277 85.7124 259.688 85.8267 260.179 85.8267ZM265.668 87V79.3636H266.841V87H265.668ZM266.264 78.0909C266.036 78.0909 265.838 78.013 265.673 77.8572C265.51 77.7015 265.429 77.5142 265.429 77.2955C265.429 77.0767 265.51 76.8894 265.673 76.7337C265.838 76.5779 266.036 76.5 266.264 76.5C266.493 76.5 266.688 76.5779 266.851 76.7337C267.017 76.8894 267.099 77.0767 267.099 77.2955C267.099 77.5142 267.017 77.7015 266.851 77.8572C266.688 78.013 266.493 78.0909 266.264 78.0909ZM276.9 76.8182V87H275.055V78.6129H274.996L272.614 80.1342V78.4439L275.145 76.8182H276.9ZM283.025 87.1392C282.362 87.1392 281.769 87.0149 281.245 86.7663C280.721 86.5144 280.305 86.1697 279.997 85.7322C279.692 85.2947 279.53 84.7943 279.51 84.2308H281.3C281.333 84.6484 281.513 84.9898 281.841 85.255C282.17 85.5168 282.564 85.6477 283.025 85.6477C283.386 85.6477 283.707 85.5649 283.989 85.3991C284.271 85.2334 284.493 85.0031 284.655 84.7081C284.818 84.4131 284.897 84.0767 284.894 83.6989C284.897 83.3144 284.816 82.973 284.65 82.6747C284.485 82.3764 284.258 82.1428 283.969 81.9737C283.681 81.8014 283.349 81.7152 282.975 81.7152C282.67 81.7119 282.37 81.7682 282.075 81.8842C281.78 82.0002 281.546 82.1527 281.374 82.3416L279.709 82.0682L280.241 76.8182H286.147V78.3594H281.767L281.474 81.0589H281.533C281.722 80.8369 281.989 80.6529 282.334 80.5071C282.678 80.358 283.056 80.2834 283.467 80.2834C284.084 80.2834 284.634 80.4292 285.118 80.7209C285.602 81.0092 285.983 81.407 286.261 81.9141C286.54 82.4212 286.679 83.0012 286.679 83.6541C286.679 84.3269 286.523 84.9268 286.211 85.4538C285.903 85.9775 285.474 86.3902 284.924 86.6918C284.377 86.9901 283.744 87.1392 283.025 87.1392ZM292.073 87.1392C291.586 87.1359 291.11 87.0514 290.646 86.8857C290.182 86.7166 289.765 86.4432 289.393 86.0653C289.022 85.6842 288.727 85.1787 288.508 84.549C288.29 83.916 288.182 83.1321 288.185 82.1974C288.185 81.3258 288.278 80.5485 288.464 79.8658C288.649 79.183 288.916 78.6063 289.264 78.1357C289.612 77.6617 290.031 77.3004 290.522 77.0518C291.016 76.8033 291.568 76.679 292.177 76.679C292.817 76.679 293.384 76.8049 293.878 77.0568C294.375 77.3087 294.776 77.6534 295.081 78.0909C295.386 78.5251 295.575 79.0156 295.648 79.5625H293.833C293.74 79.1714 293.55 78.8598 293.261 78.6278C292.976 78.3925 292.615 78.2749 292.177 78.2749C291.471 78.2749 290.928 78.5814 290.547 79.1946C290.169 79.8078 289.978 80.6496 289.975 81.7202H290.045C290.207 81.4285 290.417 81.1783 290.676 80.9695C290.934 80.7607 291.226 80.5999 291.551 80.4872C291.879 80.3712 292.225 80.3132 292.59 80.3132C293.187 80.3132 293.722 80.4557 294.196 80.7408C294.673 81.0258 295.051 81.4186 295.329 81.919C295.608 82.4162 295.745 82.9863 295.742 83.6293C295.745 84.2988 295.593 84.9003 295.285 85.4339C294.976 85.9643 294.547 86.3819 293.997 86.6868C293.447 86.9917 292.805 87.1425 292.073 87.1392ZM292.063 85.6477C292.424 85.6477 292.747 85.5599 293.032 85.3842C293.318 85.2086 293.543 84.9716 293.709 84.6733C293.874 84.375 293.956 84.0402 293.952 83.669C293.956 83.3045 293.876 82.9747 293.714 82.6797C293.555 82.3847 293.334 82.151 293.052 81.9787C292.771 81.8063 292.449 81.7202 292.088 81.7202C291.819 81.7202 291.569 81.7715 291.337 81.8743C291.105 81.977 290.903 82.1196 290.731 82.3018C290.558 82.4808 290.422 82.6896 290.323 82.9283C290.227 83.1636 290.177 83.4155 290.174 83.6839C290.177 84.0386 290.26 84.3651 290.422 84.6634C290.585 84.9616 290.809 85.2003 291.094 85.3793C291.379 85.5582 291.702 85.6477 292.063 85.6477Z" fill="#535862"/>
</svg>
