<svg width="22" height="20" viewBox="0 0 22 20" fill="none" xmlns="http://www.w3.org/2000/svg">
<g clip-path="url(#clip0_149_1924)">
<path d="M9.99996 1.66667C11.0943 1.66667 12.1779 1.88222 13.189 2.30101C14.2 2.7198 15.1187 3.33363 15.8925 4.10745C16.6663 4.88127 17.2802 5.79993 17.699 6.81098C18.1177 7.82203 18.3333 8.90566 18.3333 10M9.99996 1.66667V10M9.99996 1.66667C5.39759 1.66667 1.66663 5.39763 1.66663 10C1.66663 14.6024 5.39759 18.3333 9.99996 18.3333C14.6023 18.3333 18.3333 14.6024 18.3333 10M9.99996 1.66667C14.6023 1.66667 18.3333 5.39764 18.3333 10M18.3333 10L9.99996 10M18.3333 10C18.3333 11.3151 18.0221 12.6115 17.425 13.7833C16.828 14.955 15.9621 15.9688 14.8982 16.7418L9.99996 10" stroke="#717680" stroke-width="1.67" stroke-linecap="round" stroke-linejoin="round"/>
</g>
<defs>
<clipPath id="clip0_149_1924">
<rect width="20" height="20" fill="white"/>
</clipPath>
</defs>
</svg>
