<svg width="20" height="20" viewBox="0 0 20 20" fill="none" xmlns="http://www.w3.org/2000/svg">
<g clip-path="url(#clip0_173_749)">
<path d="M14.9998 5.83334V4.33334C14.9998 3.39992 14.9998 2.93321 14.8182 2.57669C14.6584 2.26308 14.4034 2.00812 14.0898 1.84833C13.7333 1.66667 13.2666 1.66667 12.3332 1.66667H7.6665C6.73308 1.66667 6.26637 1.66667 5.90985 1.84833C5.59625 2.00812 5.34128 2.26308 5.18149 2.57669C4.99984 2.93321 4.99984 3.39992 4.99984 4.33334V5.83334M4.99984 15C4.22486 15 3.83737 15 3.51946 14.9148C2.65673 14.6837 1.98286 14.0098 1.75169 13.1471C1.6665 12.8291 1.6665 12.4416 1.6665 11.6667V9.83334C1.6665 8.43321 1.6665 7.73314 1.93899 7.19836C2.17867 6.72796 2.56112 6.34551 3.03153 6.10582C3.56631 5.83334 4.26637 5.83334 5.6665 5.83334H14.3332C15.7333 5.83334 16.4334 5.83334 16.9681 6.10582C17.4386 6.34551 17.821 6.72796 18.0607 7.19836C18.3332 7.73314 18.3332 8.43321 18.3332 9.83334V11.6667C18.3332 12.4416 18.3332 12.8291 18.248 13.1471C18.0168 14.0098 17.3429 14.6837 16.4802 14.9148C16.1623 15 15.7748 15 14.9998 15M12.4998 8.75001H14.9998M7.6665 18.3333H12.3332C13.2666 18.3333 13.7333 18.3333 14.0898 18.1517C14.4034 17.9919 14.6584 17.7369 14.8182 17.4233C14.9998 17.0668 14.9998 16.6001 14.9998 15.6667V14.3333C14.9998 13.3999 14.9998 12.9332 14.8182 12.5767C14.6584 12.2631 14.4034 12.0081 14.0898 11.8483C13.7333 11.6667 13.2666 11.6667 12.3332 11.6667H7.6665C6.73308 11.6667 6.26637 11.6667 5.90985 11.8483C5.59625 12.0081 5.34128 12.2631 5.18149 12.5767C4.99984 12.9332 4.99984 13.3999 4.99984 14.3333V15.6667C4.99984 16.6001 4.99984 17.0668 5.18149 17.4233C5.34128 17.7369 5.59625 17.9919 5.90985 18.1517C6.26637 18.3333 6.73308 18.3333 7.6665 18.3333Z" stroke="#414651" stroke-width="1.66667" stroke-linecap="round" stroke-linejoin="round"/>
</g>
<defs>
<clipPath id="clip0_173_749">
<rect width="20" height="20" fill="white"/>
</clipPath>
</defs>
</svg>
